<svg width="32" height="32" viewBox="0 0 32 32" fill="none" xmlns="http://www.w3.org/2000/svg">
<rect width="32" height="32" rx="11" fill="#28449F"/>
<path fill-rule="evenodd" clip-rule="evenodd" d="M15.4448 3.56275H13.7369V4.35978H15.4448V3.56275ZM13.7369 3.39197H13.566V3.56275V4.35978V4.53056H13.7369H15.4448H15.6155V4.35978V3.56275V3.39197H15.4448H13.7369ZM16.2418 4.92909H12.8829V7.93091C11.4723 7.94138 10.0884 8.40362 8.86454 9.27325C7.63609 10.1461 6.61059 11.3998 5.88758 12.9126C5.16457 14.4253 4.7686 16.1458 4.73811 17.907C4.70764 19.6682 5.04368 21.4103 5.7136 22.9643L5.76662 22.929V22.976H13.1106V20.1295H7.57072C7.40473 19.4361 7.32556 18.7124 7.33817 17.9838C7.359 16.7803 7.62963 15.6045 8.12371 14.5707C8.61779 13.5369 9.31862 12.6802 10.1581 12.0837C10.9883 11.4938 11.9263 11.1781 12.8829 11.1666V13.8102H16.2418V10.0244C16.2418 10.4174 16.8535 10.736 17.6081 10.736C17.8325 10.736 18.0443 10.7078 18.2311 10.6579C18.5576 10.882 18.8488 11.1511 19.0906 11.4525C19.3561 11.7835 19.5568 12.1469 19.6813 12.5221C19.8058 12.8973 19.8516 13.2768 19.8162 13.6391C19.7926 13.8796 19.7336 14.1092 19.6411 14.3226H17.2096V15.4612H20.7566L20.7661 15.4673C20.7675 15.4652 20.7688 15.4632 20.7701 15.4612H20.7962V15.4198C21.0564 15.0005 21.2158 14.5229 21.2658 14.0122C21.3176 13.4821 21.2505 12.9267 21.0683 12.3778C20.8862 11.8288 20.5925 11.297 20.204 10.8127C19.8572 10.3803 19.4409 9.99338 18.9744 9.66928V6.21098V6.21002V6.20906V6.18157H18.9734C18.9447 5.80173 18.3444 5.4984 17.6081 5.4984C16.8535 5.4984 16.2418 5.81699 16.2418 6.21002V4.92909ZM16.2418 6.21002C16.2418 6.60304 16.8535 6.92163 17.6081 6.92163C17.9056 6.92163 18.1808 6.87213 18.4051 6.7881V9.44627C18.1808 9.36221 17.9056 9.3127 17.6081 9.3127C16.8535 9.3127 16.2418 9.63133 16.2418 10.0244V6.21002ZM13.0537 14.3795H16.071V15.1765H13.0537V14.3795ZM12.8829 14.2087H13.0537H16.071H16.2418V14.3795V15.1765V15.3473H16.071H13.0537H12.8829V15.1765V14.3795V14.2087ZM12.8829 15.8028H16.2418V16.9414H12.8829V15.8028Z" fill="#F9F9F9"/>
<path d="M14.8821 21.6141C15.0071 21.6407 15.1074 21.7032 15.1832 21.8015C15.259 21.8977 15.2969 22.0083 15.2969 22.1333C15.2969 22.3135 15.2334 22.4569 15.1064 22.5633C14.9815 22.6678 14.8064 22.72 14.5811 22.72H13.5765V20.5635H14.5473C14.7664 20.5635 14.9374 20.6137 15.0603 20.714C15.1852 20.8144 15.2477 20.9505 15.2477 21.1226C15.2477 21.2496 15.2139 21.355 15.1463 21.439C15.0808 21.523 14.9927 21.5813 14.8821 21.6141ZM14.1019 21.4359H14.4459C14.5319 21.4359 14.5975 21.4175 14.6425 21.3806C14.6896 21.3417 14.7132 21.2854 14.7132 21.2117C14.7132 21.1379 14.6896 21.0816 14.6425 21.0427C14.5975 21.0038 14.5319 20.9843 14.4459 20.9843H14.1019V21.4359ZM14.4889 22.2961C14.577 22.2961 14.6446 22.2766 14.6917 22.2377C14.7408 22.1968 14.7654 22.1384 14.7654 22.0626C14.7654 21.9868 14.7398 21.9274 14.6886 21.8844C14.6395 21.8414 14.5708 21.8199 14.4828 21.8199H14.1019V22.2961H14.4889ZM16.944 22.3391H16.1392L16.0101 22.72H15.4603L16.2405 20.5635H16.8488L17.6291 22.72H17.0731L16.944 22.3391ZM16.8089 21.9336L16.5416 21.1441L16.2774 21.9336H16.8089ZM19.7343 20.5635V22.72H19.209V21.8322H18.3919V22.72H17.8666V20.5635H18.3919V21.4083H19.209V20.5635H19.7343ZM22.5558 20.5635V22.72H22.0305V21.4267L21.5482 22.72H21.1243L20.6389 21.4236V22.72H20.1136V20.5635H20.7341L21.3393 22.0565L21.9383 20.5635H22.5558ZM24.276 22.3391H23.4712L23.3421 22.72H22.7923L23.5725 20.5635H24.1808L24.9611 22.72H24.4051L24.276 22.3391ZM24.1409 21.9336L23.8736 21.1441L23.6094 21.9336H24.1409ZM27.1278 22.72H26.6025L25.7239 21.3898V22.72H25.1986V20.5635H25.7239L26.6025 21.8998V20.5635H27.1278V22.72Z" fill="#F9F9F9"/>
<path d="M7.66116 23.8822V25.472H7.49988V24.2025L6.93309 25.472H6.81559L6.2488 24.2071V25.472H6.08752V23.8822H6.25802L6.87319 25.26L7.48836 23.8822H7.66116ZM9.16519 24.7785C9.16519 24.8338 9.16365 24.876 9.16058 24.9052H8.11687C8.12148 25.0004 8.14452 25.0818 8.18599 25.1494C8.22746 25.217 8.28199 25.2685 8.34957 25.3038C8.41716 25.3376 8.49088 25.3545 8.57076 25.3545C8.6752 25.3545 8.76276 25.3291 8.83341 25.2785C8.9056 25.2278 8.95322 25.1594 8.97626 25.0734H9.14676C9.11604 25.1963 9.04999 25.2969 8.94861 25.3752C8.84877 25.452 8.72282 25.4904 8.57076 25.4904C8.45248 25.4904 8.3465 25.4643 8.2528 25.4121C8.15911 25.3583 8.08538 25.2831 8.03162 25.1863C7.9794 25.088 7.95328 24.9736 7.95328 24.843C7.95328 24.7124 7.9794 24.598 8.03162 24.4997C8.08384 24.4014 8.1568 24.3261 8.2505 24.2739C8.3442 24.2217 8.45095 24.1956 8.57076 24.1956C8.69056 24.1956 8.79501 24.2217 8.8841 24.2739C8.97472 24.3261 9.04384 24.3968 9.09146 24.4859C9.14061 24.5734 9.16519 24.671 9.16519 24.7785ZM9.0016 24.7739C9.00314 24.6802 8.98394 24.6003 8.944 24.5343C8.9056 24.4682 8.85261 24.4183 8.78503 24.3845C8.71744 24.3507 8.64372 24.3338 8.56384 24.3338C8.44404 24.3338 8.34189 24.3722 8.25741 24.449C8.17293 24.5258 8.12608 24.6341 8.11687 24.7739H9.0016ZM9.38653 24.8407C9.38653 24.7117 9.41264 24.5988 9.46487 24.502C9.51709 24.4037 9.58852 24.3284 9.67914 24.2762C9.7713 24.2225 9.87498 24.1956 9.99018 24.1956C10.1008 24.1956 10.2006 24.2225 10.2897 24.2762C10.3788 24.33 10.4441 24.3999 10.4855 24.4859V23.767H10.6468V25.472H10.4855V25.1909C10.4471 25.2785 10.3842 25.3506 10.2966 25.4075C10.2091 25.4628 10.1061 25.4904 9.98788 25.4904C9.87268 25.4904 9.769 25.4635 9.67684 25.4098C9.58621 25.356 9.51479 25.28 9.46256 25.1817C9.41188 25.0834 9.38653 24.9697 9.38653 24.8407ZM10.4855 24.843C10.4855 24.7416 10.4648 24.6525 10.4233 24.5757C10.3819 24.4989 10.325 24.4398 10.2528 24.3983C10.1822 24.3569 10.1038 24.3361 10.0178 24.3361C9.92874 24.3361 9.84887 24.3561 9.77821 24.396C9.70756 24.436 9.65149 24.4943 9.61002 24.5711C9.57008 24.6464 9.55012 24.7362 9.55012 24.8407C9.55012 24.9436 9.57008 25.0342 9.61002 25.1126C9.65149 25.1894 9.70756 25.2485 9.77821 25.29C9.84887 25.3299 9.92874 25.3499 10.0178 25.3499C10.1038 25.3499 10.1822 25.3291 10.2528 25.2877C10.325 25.2462 10.3819 25.1871 10.4233 25.1103C10.4648 25.0335 10.4855 24.9444 10.4855 24.843ZM11.0957 23.9767C11.0634 23.9767 11.0357 23.9652 11.0127 23.9421C10.9897 23.9191 10.9781 23.8907 10.9781 23.8569C10.9781 23.8231 10.9897 23.7954 11.0127 23.7739C11.0357 23.7509 11.0634 23.7394 11.0957 23.7394C11.1279 23.7394 11.1556 23.7509 11.1786 23.7739C11.2016 23.7954 11.2132 23.8231 11.2132 23.8569C11.2132 23.8907 11.2016 23.9191 11.1786 23.9421C11.1556 23.9652 11.1279 23.9767 11.0957 23.9767ZM11.1763 24.214V25.472H11.015V24.214H11.1763ZM11.4678 24.843C11.4678 24.7124 11.4939 24.5988 11.5461 24.502C11.5983 24.4037 11.6705 24.3284 11.7627 24.2762C11.8549 24.2225 11.9601 24.1956 12.0783 24.1956C12.2335 24.1956 12.361 24.234 12.4608 24.3108C12.5622 24.3876 12.6275 24.492 12.6566 24.6241H12.4838C12.4623 24.5335 12.4155 24.4628 12.3433 24.4121C12.2726 24.3599 12.1843 24.3338 12.0783 24.3338C11.9939 24.3338 11.9178 24.353 11.8502 24.3914C11.7827 24.4298 11.7289 24.4874 11.689 24.5642C11.6506 24.6395 11.6314 24.7324 11.6314 24.843C11.6314 24.9536 11.6506 25.0473 11.689 25.1241C11.7289 25.2009 11.7827 25.2585 11.8502 25.2969C11.9178 25.3353 11.9939 25.3545 12.0783 25.3545C12.1843 25.3545 12.2726 25.3291 12.3433 25.2785C12.4155 25.2262 12.4623 25.154 12.4838 25.0619H12.6566C12.6275 25.1909 12.5622 25.2946 12.4608 25.3729C12.3594 25.4513 12.2319 25.4904 12.0783 25.4904C11.9601 25.4904 11.8549 25.4643 11.7627 25.4121C11.6705 25.3583 11.5983 25.2831 11.5461 25.1863C11.4939 25.088 11.4678 24.9736 11.4678 24.843ZM12.8808 24.8407C12.8808 24.7117 12.9061 24.5988 12.9568 24.502C13.0091 24.4037 13.0805 24.3284 13.1711 24.2762C13.2633 24.2225 13.3669 24.1956 13.4821 24.1956C13.602 24.1956 13.7049 24.2232 13.7909 24.2785C13.8784 24.3338 13.9414 24.4045 13.9798 24.4905V24.214H14.1411V25.472H13.9798V25.1932C13.9399 25.2792 13.8761 25.3506 13.7886 25.4075C13.7026 25.4628 13.5997 25.4904 13.4798 25.4904C13.3662 25.4904 13.2633 25.4635 13.1711 25.4098C13.0805 25.356 13.0091 25.28 12.9568 25.1817C12.9061 25.0834 12.8808 24.9697 12.8808 24.8407ZM13.9798 24.843C13.9798 24.7416 13.9591 24.6525 13.9176 24.5757C13.8761 24.4989 13.8193 24.4398 13.7471 24.3983C13.6765 24.3569 13.5981 24.3361 13.5121 24.3361C13.423 24.3361 13.3431 24.3561 13.2725 24.396C13.2018 24.436 13.1458 24.4943 13.1043 24.5711C13.0644 24.6464 13.0444 24.7362 13.0444 24.8407C13.0444 24.9436 13.0644 25.0342 13.1043 25.1126C13.1458 25.1894 13.2018 25.2485 13.2725 25.29C13.3431 25.3299 13.423 25.3499 13.5121 25.3499C13.5981 25.3499 13.6765 25.3291 13.7471 25.2877C13.8193 25.2462 13.8761 25.1871 13.9176 25.1103C13.9591 25.0335 13.9798 24.9444 13.9798 24.843ZM14.6705 23.767V25.472H14.5093V23.767H14.6705ZM15.8293 23.767V25.472H15.668V23.767H15.8293ZM16.1208 24.8407C16.1208 24.7117 16.1461 24.5988 16.1968 24.502C16.249 24.4037 16.3205 24.3284 16.4111 24.2762C16.5033 24.2225 16.6069 24.1956 16.7221 24.1956C16.842 24.1956 16.9449 24.2232 17.0309 24.2785C17.1184 24.3338 17.1814 24.4045 17.2198 24.4905V24.214H17.3811V25.472H17.2198V25.1932C17.1799 25.2792 17.1161 25.3506 17.0286 25.4075C16.9426 25.4628 16.8397 25.4904 16.7198 25.4904C16.6062 25.4904 16.5033 25.4635 16.4111 25.4098C16.3205 25.356 16.249 25.28 16.1968 25.1817C16.1461 25.0834 16.1208 24.9697 16.1208 24.8407ZM17.2198 24.843C17.2198 24.7416 17.1991 24.6525 17.1576 24.5757C17.1161 24.4989 17.0593 24.4398 16.9871 24.3983C16.9165 24.3569 16.8381 24.3361 16.7521 24.3361C16.663 24.3361 16.5831 24.3561 16.5125 24.396C16.4418 24.436 16.3858 24.4943 16.3443 24.5711C16.3044 24.6464 16.2844 24.7362 16.2844 24.8407C16.2844 24.9436 16.3044 25.0342 16.3443 25.1126C16.3858 25.1894 16.4418 25.2485 16.5125 25.29C16.5831 25.3299 16.663 25.3499 16.7521 25.3499C16.8381 25.3499 16.9165 25.3291 16.9871 25.2877C17.0593 25.2462 17.1161 25.1871 17.1576 25.1103C17.1991 25.0335 17.2198 24.9444 17.2198 24.843ZM17.9082 24.4928C17.9497 24.4052 18.0134 24.3338 18.0995 24.2785C18.187 24.2232 18.2899 24.1956 18.4082 24.1956C18.5234 24.1956 18.6263 24.2225 18.7169 24.2762C18.8076 24.3284 18.8782 24.4037 18.9289 24.502C18.9811 24.5988 19.0072 24.7117 19.0072 24.8407C19.0072 24.9697 18.9811 25.0834 18.9289 25.1817C18.8782 25.28 18.8068 25.356 18.7146 25.4098C18.624 25.4635 18.5219 25.4904 18.4082 25.4904C18.2884 25.4904 18.1847 25.4635 18.0972 25.4098C18.0111 25.3545 17.9482 25.2831 17.9082 25.1955V25.472H17.7493V23.767H17.9082V24.4928ZM18.8437 24.8407C18.8437 24.7362 18.8229 24.6464 18.7814 24.5711C18.7415 24.4943 18.6862 24.436 18.6156 24.396C18.5449 24.3561 18.465 24.3361 18.3759 24.3361C18.2899 24.3361 18.2108 24.3569 18.1386 24.3983C18.068 24.4398 18.0119 24.4989 17.9704 24.5757C17.929 24.6525 17.9082 24.7416 17.9082 24.843C17.9082 24.9444 17.929 25.0335 17.9704 25.1103C18.0119 25.1871 18.068 25.2462 18.1386 25.2877C18.2108 25.3291 18.2899 25.3499 18.3759 25.3499C18.465 25.3499 18.5449 25.3299 18.6156 25.29C18.6862 25.2485 18.7415 25.1894 18.7814 25.1126C18.8229 25.0342 18.8437 24.9436 18.8437 24.8407ZM19.8547 25.4904C19.7364 25.4904 19.6296 25.4643 19.5344 25.4121C19.4407 25.3583 19.3662 25.2831 19.3109 25.1863C19.2572 25.088 19.2303 24.9736 19.2303 24.843C19.2303 24.7124 19.2579 24.5988 19.3132 24.502C19.3685 24.4037 19.4438 24.3284 19.539 24.2762C19.6342 24.2225 19.741 24.1956 19.8593 24.1956C19.9775 24.1956 20.0843 24.2225 20.1795 24.2762C20.2763 24.3284 20.3516 24.4037 20.4053 24.502C20.4606 24.5988 20.4883 24.7124 20.4883 24.843C20.4883 24.972 20.4606 25.0857 20.4053 25.184C20.35 25.2823 20.274 25.3583 20.1772 25.4121C20.0805 25.4643 19.9729 25.4904 19.8547 25.4904ZM19.8547 25.3499C19.9376 25.3499 20.0144 25.3314 20.0851 25.2946C20.1557 25.2562 20.2125 25.1993 20.2556 25.1241C20.3001 25.0473 20.3224 24.9536 20.3224 24.843C20.3224 24.7324 20.3009 24.6395 20.2579 24.5642C20.2149 24.4874 20.158 24.4306 20.0874 24.3937C20.0167 24.3553 19.9399 24.3361 19.857 24.3361C19.774 24.3361 19.6972 24.3553 19.6266 24.3937C19.5559 24.4306 19.4991 24.4874 19.4561 24.5642C19.4146 24.6395 19.3939 24.7324 19.3939 24.843C19.3939 24.9536 19.4146 25.0473 19.4561 25.1241C19.4991 25.1993 19.5551 25.2562 19.6243 25.2946C19.6949 25.3314 19.7717 25.3499 19.8547 25.3499ZM20.9436 24.4375C20.9789 24.3592 21.0326 24.2985 21.1048 24.2555C21.1786 24.2125 21.2684 24.191 21.3744 24.191V24.3592H21.3306C21.2139 24.3592 21.1202 24.3906 21.0495 24.4536C20.9789 24.5166 20.9436 24.6218 20.9436 24.7693V25.472H20.7823V24.214H20.9436V24.4375ZM21.5433 24.8407C21.5433 24.7117 21.5686 24.5988 21.6193 24.502C21.6716 24.4037 21.743 24.3284 21.8336 24.2762C21.9258 24.2225 22.0294 24.1956 22.1446 24.1956C22.2645 24.1956 22.3674 24.2232 22.4534 24.2785C22.5409 24.3338 22.6039 24.4045 22.6423 24.4905V24.214H22.8036V25.472H22.6423V25.1932C22.6024 25.2792 22.5386 25.3506 22.4511 25.4075C22.3651 25.4628 22.2621 25.4904 22.1423 25.4904C22.0287 25.4904 21.9258 25.4635 21.8336 25.4098C21.743 25.356 21.6716 25.28 21.6193 25.1817C21.5686 25.0834 21.5433 24.9697 21.5433 24.8407ZM22.6423 24.843C22.6423 24.7416 22.6216 24.6525 22.5801 24.5757C22.5386 24.4989 22.4818 24.4398 22.4096 24.3983C22.3389 24.3569 22.2606 24.3361 22.1746 24.3361C22.0855 24.3361 22.0056 24.3561 21.935 24.396C21.8643 24.436 21.8083 24.4943 21.7668 24.5711C21.7269 24.6464 21.7069 24.7362 21.7069 24.8407C21.7069 24.9436 21.7269 25.0342 21.7668 25.1126C21.8083 25.1894 21.8643 25.2485 21.935 25.29C22.0056 25.3299 22.0855 25.3499 22.1746 25.3499C22.2606 25.3499 22.3389 25.3291 22.4096 25.2877C22.4818 25.2462 22.5386 25.1871 22.5801 25.1103C22.6216 25.0335 22.6423 24.9444 22.6423 24.843ZM23.3814 24.3499V25.131C23.3814 25.2078 23.396 25.2608 23.4252 25.29C23.4544 25.3192 23.5059 25.3337 23.5796 25.3337H23.727V25.472H23.5542C23.4406 25.472 23.3561 25.4459 23.3008 25.3937C23.2455 25.3399 23.2179 25.2523 23.2179 25.131V24.3499H23.0428V24.214H23.2179V23.8984H23.3814V24.214H23.727V24.3499H23.3814ZM24.5437 25.4904C24.4254 25.4904 24.3187 25.4643 24.2234 25.4121C24.1297 25.3583 24.0552 25.2831 23.9999 25.1863C23.9462 25.088 23.9193 24.9736 23.9193 24.843C23.9193 24.7124 23.9469 24.5988 24.0022 24.502C24.0575 24.4037 24.1328 24.3284 24.228 24.2762C24.3233 24.2225 24.43 24.1956 24.5483 24.1956C24.6666 24.1956 24.7733 24.2225 24.8685 24.2762C24.9653 24.3284 25.0406 24.4037 25.0943 24.502C25.1496 24.5988 25.1773 24.7124 25.1773 24.843C25.1773 24.972 25.1496 25.0857 25.0943 25.184C25.039 25.2823 24.963 25.3583 24.8662 25.4121C24.7695 25.4643 24.662 25.4904 24.5437 25.4904ZM24.5437 25.3499C24.6266 25.3499 24.7034 25.3314 24.7741 25.2946C24.8447 25.2562 24.9016 25.1993 24.9446 25.1241C24.9891 25.0473 25.0114 24.9536 25.0114 24.843C25.0114 24.7324 24.9899 24.6395 24.9469 24.5642C24.9039 24.4874 24.847 24.4306 24.7764 24.3937C24.7057 24.3553 24.6289 24.3361 24.546 24.3361C24.463 24.3361 24.3862 24.3553 24.3156 24.3937C24.2449 24.4306 24.1881 24.4874 24.1451 24.5642C24.1036 24.6395 24.0829 24.7324 24.0829 24.843C24.0829 24.9536 24.1036 25.0473 24.1451 25.1241C24.1881 25.1993 24.2442 25.2562 24.3133 25.2946C24.3839 25.3314 24.4607 25.3499 24.5437 25.3499ZM25.6325 24.4375C25.6679 24.3592 25.7216 24.2985 25.7938 24.2555C25.8676 24.2125 25.9574 24.191 26.0634 24.191V24.3592H26.0196C25.9029 24.3592 25.8092 24.3906 25.7385 24.4536C25.6679 24.5166 25.6325 24.6218 25.6325 24.7693V25.472H25.4713V24.214H25.6325V24.4375ZM27.3428 24.214L26.5963 26.0641H26.4281L26.6724 25.4651L26.1563 24.214H26.3337L26.7622 25.2877L27.1769 24.214H27.3428Z" fill="#F9F9F9"/>
</svg>
