<svg width="253" height="39" viewBox="0 0 253 39" fill="none" xmlns="http://www.w3.org/2000/svg">
<g clip-path="url(#clip0_222_3146)">
<path d="M185.731 0C185.731 21.5391 158.93 39 125.868 39C92.8057 39 66.0038 21.5391 66.0038 0C66.0038 -21.5391 92.8057 -39 125.868 -39C158.93 -39 185.731 -21.5391 185.731 0Z" fill="#F9F9F9"/>
<path d="M180.903 16.5869C180.903 16.5869 185.904 0.880461 216.846 0.147461C247.788 -0.585539 187.67 -9.37305 187.67 -9.37305L180.903 16.5869Z" fill="#F9F9F9"/>
<path d="M83.4844 26.6534C68.1255 17.2534 51.4472 0.613634 9.90172 0.227634C-31.6438 -0.158365 70.9948 -16.3144 70.9948 -16.3144C70.9948 -16.3144 98.8433 36.0554 83.4844 26.6534Z" fill="#F9F9F9"/>
<path d="M169.516 26.6535C182.635 16.4685 201.552 0.613546 243.1 0.227547C284.647 -0.158453 182.008 -16.3145 182.008 -16.3145C182.008 -16.3145 156.397 36.8375 169.516 26.6535Z" fill="#F9F9F9"/>
</g>
<defs>
<clipPath id="clip0_222_3146">
<rect width="253" height="78" fill="white" transform="matrix(1 0 0 -1 0 39)"/>
</clipPath>
</defs>
</svg>
