<svg width="143" height="41" viewBox="0 0 143 41" fill="none" xmlns="http://www.w3.org/2000/svg">
<path d="M5.69891 13.2166C5.69891 13.2511 5.71327 13.2798 5.74198 13.3028C5.7707 13.3257 5.80229 13.3372 5.83675 13.3372H6.17275C6.20721 13.3372 6.23593 13.3458 6.25891 13.3631C6.28188 13.3746 6.30198 13.4062 6.31921 13.4578C6.33645 13.5095 6.34793 13.5899 6.35368 13.6991C6.35942 13.8082 6.36229 13.9575 6.36229 14.1471C6.36229 14.3481 6.35942 14.5061 6.35368 14.6209C6.34793 14.7358 6.33645 14.8219 6.31921 14.8794C6.30198 14.9368 6.28188 14.9713 6.25891 14.9828C6.23593 14.9943 6.20721 15 6.17275 15H6.02629C5.95737 15 5.88845 15 5.81952 15C5.7506 14.9943 5.69316 14.9856 5.64721 14.9742C5.60127 15.2441 5.51511 15.4968 5.38875 15.7323C5.26239 15.9678 5.0987 16.1717 4.89768 16.344C4.70239 16.5163 4.47265 16.6513 4.20845 16.7489C3.94424 16.8466 3.65132 16.8954 3.32968 16.8954H2.89891C2.5428 16.8954 2.22404 16.8408 1.9426 16.7317C1.66691 16.6226 1.43142 16.4646 1.23614 16.2578C1.04086 16.0568 0.891523 15.8098 0.788138 15.5169C0.684754 15.224 0.633061 14.8937 0.633061 14.5262V12.7255H2.19245V14.5692C2.19245 14.7875 2.25563 14.9541 2.38198 15.0689C2.50834 15.1838 2.71224 15.2412 2.99368 15.2412H3.27798C3.58814 15.2412 3.80927 15.1781 3.94137 15.0517C4.07347 14.9253 4.13952 14.7645 4.13952 14.5692V11.9157H5.69891V13.2166ZM3.66568 12.2086H2.09768V11.0283H3.66568V12.2086ZM7.59342 13.3372C7.62788 13.3372 7.6566 13.3458 7.67957 13.3631C7.70829 13.3746 7.72839 13.4062 7.73988 13.4578C7.75711 13.5095 7.7686 13.5899 7.77434 13.6991C7.78008 13.8082 7.78296 13.9575 7.78296 14.1471C7.78296 14.3481 7.78008 14.5061 7.77434 14.6209C7.7686 14.7358 7.75711 14.8219 7.73988 14.8794C7.72839 14.9368 7.70829 14.9713 7.67957 14.9828C7.6566 14.9943 7.62788 15 7.59342 15H6.17188C6.13742 15 6.1087 14.9943 6.08572 14.9828C6.05701 14.9713 6.0369 14.9397 6.02542 14.888C6.00819 14.8306 5.9967 14.7473 5.99096 14.6382C5.98521 14.529 5.98234 14.3797 5.98234 14.1902C5.98234 13.9891 5.98521 13.8312 5.99096 13.7163C5.9967 13.6014 6.00819 13.5182 6.02542 13.4665C6.0369 13.409 6.05701 13.3746 6.08572 13.3631C6.1087 13.3458 6.13742 13.3372 6.17188 13.3372H7.59342ZM9.01529 13.3372C9.04975 13.3372 9.07847 13.3458 9.10145 13.3631C9.13016 13.3746 9.15027 13.4062 9.16175 13.4578C9.17898 13.5095 9.19047 13.5899 9.19622 13.6991C9.20196 13.8082 9.20483 13.9575 9.20483 14.1471C9.20483 14.3481 9.20196 14.5061 9.19622 14.6209C9.19047 14.7358 9.17898 14.8219 9.16175 14.8794C9.15027 14.9368 9.13016 14.9713 9.10145 14.9828C9.07847 14.9943 9.04975 15 9.01529 15H7.59375C7.55929 15 7.53057 14.9943 7.5076 14.9828C7.47888 14.9713 7.45878 14.9397 7.44729 14.888C7.43006 14.8306 7.41857 14.7473 7.41283 14.6382C7.40709 14.529 7.40422 14.3797 7.40422 14.1902C7.40422 13.9891 7.40709 13.8312 7.41283 13.7163C7.41857 13.6014 7.43006 13.5182 7.44729 13.4665C7.45878 13.409 7.47888 13.3746 7.5076 13.3631C7.53057 13.3458 7.55929 13.3372 7.59375 13.3372H9.01529ZM10.4372 13.3372C10.4716 13.3372 10.5003 13.3458 10.5233 13.3631C10.552 13.3746 10.5721 13.4062 10.5836 13.4578C10.6009 13.5095 10.6123 13.5899 10.6181 13.6991C10.6238 13.8082 10.6267 13.9575 10.6267 14.1471C10.6267 14.3481 10.6238 14.5061 10.6181 14.6209C10.6123 14.7358 10.6009 14.8219 10.5836 14.8794C10.5721 14.9368 10.552 14.9713 10.5233 14.9828C10.5003 14.9943 10.4716 15 10.4372 15H9.01563C8.98117 15 8.95245 14.9943 8.92947 14.9828C8.90076 14.9713 8.88065 14.9397 8.86917 14.888C8.85194 14.8306 8.84045 14.7473 8.8347 14.6382C8.82896 14.529 8.82609 14.3797 8.82609 14.1902C8.82609 13.9891 8.82896 13.8312 8.8347 13.7163C8.84045 13.6014 8.85194 13.5182 8.86917 13.4665C8.88065 13.409 8.90076 13.3746 8.92947 13.3631C8.95245 13.3458 8.98117 13.3372 9.01563 13.3372H10.4372ZM11.859 13.3372C11.8935 13.3372 11.9222 13.3458 11.9452 13.3631C11.9739 13.3746 11.994 13.4062 12.0055 13.4578C12.0227 13.5095 12.0342 13.5899 12.04 13.6991C12.0457 13.8082 12.0486 13.9575 12.0486 14.1471C12.0486 14.3481 12.0457 14.5061 12.04 14.6209C12.0342 14.7358 12.0227 14.8219 12.0055 14.8794C11.994 14.9368 11.9739 14.9713 11.9452 14.9828C11.9222 14.9943 11.8935 15 11.859 15H10.4375C10.403 15 10.3743 14.9943 10.3513 14.9828C10.3226 14.9713 10.3025 14.9397 10.291 14.888C10.2738 14.8306 10.2623 14.7473 10.2566 14.6382C10.2508 14.529 10.248 14.3797 10.248 14.1902C10.248 13.9891 10.2508 13.8312 10.2566 13.7163C10.2623 13.6014 10.2738 13.5182 10.291 13.4665C10.3025 13.409 10.3226 13.3746 10.3513 13.3631C10.3743 13.3458 10.403 13.3372 10.4375 13.3372H11.859ZM13.2809 13.3372C13.3154 13.3372 13.3441 13.3458 13.3671 13.3631C13.3958 13.3746 13.4159 13.4062 13.4274 13.4578C13.4446 13.5095 13.4561 13.5899 13.4618 13.6991C13.4676 13.8082 13.4705 13.9575 13.4705 14.1471C13.4705 14.3481 13.4676 14.5061 13.4618 14.6209C13.4561 14.7358 13.4446 14.8219 13.4274 14.8794C13.4159 14.9368 13.3958 14.9713 13.3671 14.9828C13.3441 14.9943 13.3154 15 13.2809 15H11.8594C11.8249 15 11.7962 14.9943 11.7732 14.9828C11.7445 14.9713 11.7244 14.9397 11.7129 14.888C11.6957 14.8306 11.6842 14.7473 11.6785 14.6382C11.6727 14.529 11.6698 14.3797 11.6698 14.1902C11.6698 13.9891 11.6727 13.8312 11.6785 13.7163C11.6842 13.6014 11.6957 13.5182 11.7129 13.4665C11.7244 13.409 11.7445 13.3746 11.7732 13.3631C11.7962 13.3458 11.8249 13.3372 11.8594 13.3372H13.2809ZM13.7551 13.1994C13.7551 12.625 13.9073 12.1742 14.2117 11.8468C14.5219 11.5136 14.944 11.3471 15.4782 11.3471C16.041 11.3471 16.4632 11.5108 16.7446 11.8382C17.0261 12.1655 17.1668 12.6021 17.1668 13.1477V13.1994C17.1668 13.2396 17.1812 13.2741 17.2099 13.3028C17.2386 13.3257 17.273 13.3372 17.3133 13.3372H17.6406C17.6751 13.3372 17.7038 13.3458 17.7268 13.3631C17.7498 13.3746 17.7699 13.4062 17.7871 13.4578C17.8043 13.5095 17.8158 13.5899 17.8216 13.6991C17.8273 13.8082 17.8302 13.9575 17.8302 14.1471C17.8302 14.3481 17.8273 14.5061 17.8216 14.6209C17.8158 14.7358 17.8043 14.8219 17.7871 14.8794C17.7699 14.9368 17.7498 14.9713 17.7268 14.9828C17.7038 14.9943 17.6751 15 17.6406 15C17.4109 15 17.1926 14.9856 16.9859 14.9569C16.7791 14.9225 16.5924 14.8478 16.4259 14.7329C16.1387 14.911 15.8027 15 15.4179 15C15.2513 15 15.0876 14.977 14.9268 14.9311C14.766 14.8851 14.6281 14.8133 14.5133 14.7157C14.4443 14.7789 14.3697 14.8277 14.2893 14.8622C14.2146 14.8966 14.1284 14.9253 14.0308 14.9483C13.9389 14.9713 13.8326 14.9856 13.712 14.9914C13.5914 14.9971 13.4478 15 13.2813 15C13.2468 15 13.2181 14.9943 13.1951 14.9828C13.1664 14.9713 13.1463 14.9397 13.1348 14.888C13.1176 14.8306 13.1061 14.7473 13.1003 14.6382C13.0946 14.529 13.0917 14.3797 13.0917 14.1902C13.0917 13.9891 13.0946 13.8312 13.1003 13.7163C13.1061 13.6014 13.1176 13.5182 13.1348 13.4665C13.1463 13.409 13.1664 13.3746 13.1951 13.3631C13.2181 13.3458 13.2468 13.3372 13.2813 13.3372H13.6086C13.6488 13.3372 13.6833 13.3257 13.712 13.3028C13.7407 13.2741 13.7551 13.2396 13.7551 13.1994ZM15.1766 13.1477C15.1766 13.2683 15.2025 13.3458 15.2542 13.3803C15.3059 13.4148 15.369 13.432 15.4437 13.432C15.5069 13.432 15.5643 13.4148 15.616 13.3803C15.6677 13.3458 15.6936 13.2683 15.6936 13.1477C15.6936 12.9582 15.6103 12.8634 15.4437 12.8634C15.2657 12.8634 15.1766 12.9582 15.1766 13.1477ZM18.1133 13.3372V13.1477C18.1133 12.9467 18.1362 12.737 18.1822 12.5188C18.2339 12.2948 18.3229 12.0909 18.4493 11.9071C18.5814 11.7175 18.7566 11.5625 18.9748 11.4418C19.1931 11.3155 19.4745 11.2523 19.8191 11.2523C20.0776 11.2523 20.3073 11.2954 20.5083 11.3815C20.7094 11.4619 20.8788 11.5768 21.0167 11.7262C21.1545 11.8755 21.2579 12.0535 21.3268 12.2603C21.3957 12.4613 21.4302 12.6796 21.4302 12.9151C21.4302 12.9955 21.4216 13.0845 21.4043 13.1822C21.3929 13.2798 21.3699 13.3803 21.3354 13.4837C21.5365 13.3861 21.8208 13.3372 22.1883 13.3372C22.2228 13.3372 22.2515 13.3458 22.2745 13.3631C22.2975 13.3746 22.3176 13.4062 22.3348 13.4578C22.352 13.5095 22.3635 13.5899 22.3693 13.6991C22.375 13.8082 22.3779 13.9575 22.3779 14.1471C22.3779 14.3481 22.375 14.5061 22.3693 14.6209C22.3635 14.7358 22.352 14.8219 22.3348 14.8794C22.3176 14.9368 22.2975 14.9713 22.2745 14.9828C22.2515 14.9943 22.2228 15 22.1883 15C22.1424 15 22.0907 15.0029 22.0333 15.0086C21.9816 15.0201 21.9213 15.0459 21.8523 15.0862C21.7834 15.1321 21.703 15.2039 21.6111 15.3015C21.525 15.3992 21.4187 15.537 21.2923 15.7151L20.4825 16.8523H19.6296C19.4171 16.8523 19.2189 16.8178 19.0351 16.7489C18.8513 16.6857 18.6905 16.5852 18.5527 16.4474C18.4148 16.3153 18.3057 16.1458 18.2253 15.9391C18.1506 15.7323 18.1133 15.4911 18.1133 15.2154V15H17.6394C17.605 15 17.5762 14.9943 17.5533 14.9828C17.5246 14.9713 17.5045 14.9397 17.493 14.888C17.4757 14.8306 17.4642 14.7473 17.4585 14.6382C17.4528 14.529 17.4499 14.3797 17.4499 14.1902C17.4499 13.9891 17.4528 13.8312 17.4585 13.7163C17.4642 13.6014 17.4757 13.5182 17.493 13.4665C17.5045 13.409 17.5246 13.3746 17.5533 13.3631C17.5762 13.3458 17.605 13.3372 17.6394 13.3372H18.1133ZM20.0087 13.0529C20.0087 12.9553 19.9857 12.8864 19.9397 12.8462C19.8995 12.8002 19.845 12.7772 19.776 12.7772C19.6152 12.7772 19.5348 12.8835 19.5348 13.096V13.3889H19.6296C19.7445 13.3889 19.8363 13.3573 19.9053 13.2942C19.9742 13.231 20.0087 13.1506 20.0087 13.0529ZM19.5348 14.9569C19.5348 15.1005 19.5492 15.2068 19.5779 15.2757C19.6123 15.3446 19.6784 15.3791 19.776 15.3791L20.1207 14.8449C20.0288 14.8794 19.934 14.9081 19.8363 14.9311C19.7445 14.9483 19.6439 14.9569 19.5348 14.9569ZM22.7166 13.3372C22.7511 13.3372 22.7827 13.3257 22.8114 13.3028C22.8401 13.2741 22.8545 13.2396 22.8545 13.1994V11.9157H24.4139V13.3372C24.4139 13.6129 24.3737 13.8542 24.2933 14.0609C24.2186 14.2677 24.1123 14.44 23.9745 14.5778C23.8366 14.7157 23.6701 14.8219 23.4748 14.8966C23.2853 14.9655 23.0785 15 22.8545 15H22.1911C22.1566 15 22.1279 14.9943 22.105 14.9828C22.0762 14.9713 22.0561 14.9397 22.0446 14.888C22.0274 14.8306 22.0159 14.7473 22.0102 14.6382C22.0044 14.529 22.0016 14.3797 22.0016 14.1902C22.0016 13.9891 22.0044 13.8312 22.0102 13.7163C22.0159 13.6014 22.0274 13.5182 22.0446 13.4665C22.0561 13.409 22.0762 13.3746 22.105 13.3631C22.1279 13.3458 22.1566 13.3372 22.1911 13.3372H22.7166ZM24.1382 16.6542H22.5702V15.4652H24.1382V16.6542ZM29.5873 14.9052C29.5873 14.865 29.5729 14.8306 29.5442 14.8018C29.5155 14.7731 29.4839 14.7588 29.4494 14.7588H27.7867V13.0098C27.7867 12.7514 27.8269 12.5159 27.9073 12.3034C27.9877 12.0851 28.0997 11.8985 28.2433 11.7434C28.3926 11.5883 28.5735 11.4677 28.7861 11.3815C28.9986 11.2954 29.2341 11.2523 29.4925 11.2523H30.8624L30.9571 12.8634H29.4925C29.4523 12.8634 29.4178 12.8777 29.3891 12.9065C29.3662 12.9352 29.3547 12.9696 29.3547 13.0098V13.1477H29.639C29.9204 13.1477 30.1559 13.185 30.3454 13.2597C30.5407 13.3344 30.6958 13.4377 30.8107 13.5698C30.9313 13.6962 31.0174 13.8513 31.0691 14.0351C31.1208 14.2131 31.1467 14.4084 31.1467 14.6209C31.1467 14.9311 31.0864 15.224 30.9657 15.4997C30.8509 15.7754 30.6872 16.0166 30.4747 16.2234C30.2622 16.4302 30.0066 16.5938 29.7079 16.7145C29.415 16.8351 29.0905 16.8954 28.7344 16.8954H28.1141C27.7579 16.8954 27.4392 16.8408 27.1577 16.7317C26.8821 16.6226 26.6466 16.4646 26.4513 16.2578C26.256 16.0568 26.1067 15.8098 26.0033 15.5169C25.8999 15.224 25.8482 14.8937 25.8482 14.5262V12.7255H27.4076V14.5692C27.4076 14.7875 27.4708 14.9541 27.5971 15.0689C27.7235 15.1838 27.9274 15.2412 28.2088 15.2412H28.8291C29.1163 15.2412 29.3145 15.2096 29.4236 15.1465C29.5327 15.0833 29.5873 15.0029 29.5873 14.9052ZM33.7632 14.6209C33.7632 14.9426 33.7086 15.247 33.5995 15.5342C33.4904 15.8213 33.3382 16.0712 33.1429 16.2837C32.9476 16.5019 32.7121 16.6743 32.4364 16.8006C32.1665 16.927 31.8649 16.9902 31.5318 16.9902H31.101L30.9632 15.336H31.3423C31.6524 15.336 31.8707 15.2728 31.997 15.1465C32.1291 15.0201 32.1952 14.8622 32.1952 14.6726V11.9157H33.7632V14.6209ZM33.565 10.0203H32.333V8.84H33.565V10.0203ZM34.1853 11.4418H31.7213V10.2615H34.1853V11.4418ZM38.3115 13.3372C38.346 13.3372 38.3747 13.3458 38.3977 13.3631C38.4206 13.3746 38.4379 13.4062 38.4493 13.4578C38.4666 13.5095 38.4781 13.5899 38.4838 13.6991C38.4896 13.8082 38.4924 13.9575 38.4924 14.1471C38.4924 14.3481 38.4896 14.5061 38.4838 14.6209C38.4781 14.7358 38.4666 14.8219 38.4493 14.8794C38.4379 14.9368 38.4206 14.9713 38.3977 14.9828C38.3747 14.9943 38.346 15 38.3115 15H37.8204C37.8032 15.3504 37.7371 15.6576 37.6223 15.9218C37.5131 16.1861 37.3638 16.4072 37.1743 16.5852C36.9847 16.769 36.7607 16.9069 36.5023 16.9988C36.2438 17.0907 35.9624 17.1366 35.658 17.1366H34.3743L34.2795 15.4738H35.7527C35.9423 15.4738 36.0744 15.4365 36.149 15.3618C36.2294 15.2872 36.2697 15.1666 36.2697 15H36.1318C35.7757 15 35.4828 14.9598 35.253 14.8794C35.0233 14.799 34.8424 14.687 34.7103 14.5434C34.5839 14.3941 34.4949 14.2131 34.4432 14.0006C34.3972 13.7881 34.3743 13.5526 34.3743 13.2942C34.3743 13.0472 34.4116 12.8117 34.4863 12.5877C34.5609 12.3637 34.6701 12.1684 34.8137 12.0018C34.963 11.8295 35.1439 11.6946 35.3564 11.5969C35.5689 11.4935 35.8102 11.4418 36.0801 11.4418C36.3156 11.4418 36.5396 11.4763 36.7521 11.5452C36.9646 11.6142 37.1513 11.7262 37.3121 11.8812C37.4729 12.0306 37.5993 12.2258 37.6912 12.4671C37.7888 12.7026 37.8377 12.9926 37.8377 13.3372H38.3115ZM35.8475 13.1908C35.8475 13.2827 35.8647 13.3545 35.8992 13.4062C35.9337 13.4578 36.0112 13.4837 36.1318 13.4837H36.3644V13.2425C36.3644 13.0242 36.2754 12.9151 36.0973 12.9151C35.9308 12.9151 35.8475 13.007 35.8475 13.1908ZM38.6387 13.3372C38.6789 13.3372 38.7133 13.3257 38.7421 13.3028C38.7708 13.2741 38.7851 13.2396 38.7851 13.1994V9.74462H40.3531V13.3372C40.3531 13.6244 40.3129 13.8714 40.2325 14.0782C40.1521 14.2849 40.043 14.4572 39.9051 14.5951C39.7673 14.7329 39.6007 14.8363 39.4055 14.9052C39.2159 14.9684 39.0091 15 38.7851 15H38.3113C38.2768 15 38.2481 14.9943 38.2251 14.9828C38.1964 14.9713 38.1763 14.9397 38.1648 14.888C38.1476 14.8306 38.1361 14.7473 38.1304 14.6382C38.1246 14.529 38.1218 14.3797 38.1218 14.1902C38.1218 13.9891 38.1246 13.8312 38.1304 13.7163C38.1361 13.6014 38.1476 13.5182 38.1648 13.4665C38.1763 13.409 38.1964 13.3746 38.2251 13.3631C38.2481 13.3458 38.2768 13.3372 38.3113 13.3372H38.6387ZM44.9413 13.3372C44.9758 13.3372 45.0045 13.3458 45.0275 13.3631C45.0504 13.3746 45.0677 13.4062 45.0792 13.4578C45.0964 13.5095 45.1079 13.5899 45.1136 13.6991C45.1194 13.8082 45.1222 13.9575 45.1222 14.1471C45.1222 14.3481 45.1194 14.5061 45.1136 14.6209C45.1079 14.7358 45.0964 14.8219 45.0792 14.8794C45.0677 14.9368 45.0504 14.9713 45.0275 14.9828C45.0045 14.9943 44.9758 15 44.9413 15H44.4502C44.433 15.3504 44.3669 15.6576 44.2521 15.9218C44.1429 16.1861 43.9936 16.4072 43.8041 16.5852C43.6145 16.769 43.3905 16.9069 43.1321 16.9988C42.8736 17.0907 42.5922 17.1366 42.2878 17.1366H41.0041L40.9093 15.4738H42.3825C42.5721 15.4738 42.7042 15.4365 42.7788 15.3618C42.8593 15.2872 42.8995 15.1666 42.8995 15H42.7616C42.4055 15 42.1126 14.9598 41.8828 14.8794C41.6531 14.799 41.4722 14.687 41.3401 14.5434C41.2137 14.3941 41.1247 14.2131 41.073 14.0006C41.0271 13.7881 41.0041 13.5526 41.0041 13.2942C41.0041 13.0472 41.0414 12.8117 41.1161 12.5877C41.1907 12.3637 41.2999 12.1684 41.4435 12.0018C41.5928 11.8295 41.7737 11.6946 41.9862 11.5969C42.1987 11.4935 42.44 11.4418 42.7099 11.4418C42.9454 11.4418 43.1694 11.4763 43.3819 11.5452C43.5944 11.6142 43.7811 11.7262 43.9419 11.8812C44.1027 12.0306 44.2291 12.2258 44.321 12.4671C44.4186 12.7026 44.4675 12.9926 44.4675 13.3372H44.9413ZM42.4773 13.1908C42.4773 13.2827 42.4945 13.3545 42.529 13.4062C42.5635 13.4578 42.641 13.4837 42.7616 13.4837H42.9942V13.2425C42.9942 13.0242 42.9052 12.9151 42.7272 12.9151C42.5606 12.9151 42.4773 13.007 42.4773 13.1908ZM45.2685 13.3372C45.3087 13.3372 45.3432 13.3257 45.3719 13.3028C45.4006 13.2741 45.415 13.2396 45.415 13.1994V11.9157H46.983V13.1994C46.983 13.2913 47.0289 13.3372 47.1208 13.3372H47.4482C47.4826 13.3372 47.5114 13.3458 47.5343 13.3631C47.5631 13.3746 47.5832 13.4062 47.5946 13.4578C47.6119 13.5095 47.6234 13.5899 47.6291 13.6991C47.6348 13.8082 47.6377 13.9575 47.6377 14.1471C47.6377 14.3481 47.6348 14.5061 47.6291 14.6209C47.6234 14.7358 47.6119 14.8219 47.5946 14.8794C47.5832 14.9368 47.5631 14.9713 47.5343 14.9828C47.5114 14.9943 47.4826 15 47.4482 15H47.1811C46.9858 15 46.8049 14.9828 46.6383 14.9483C46.4775 14.9138 46.3368 14.8363 46.2162 14.7157C46.0783 14.8363 45.9376 14.9138 45.794 14.9483C45.6562 14.9828 45.5298 15 45.415 15H44.9411C44.9066 15 44.8779 14.9943 44.855 14.9828C44.8262 14.9713 44.8061 14.9397 44.7946 14.888C44.7774 14.8306 44.7659 14.7473 44.7602 14.6382C44.7544 14.529 44.7516 14.3797 44.7516 14.1902C44.7516 13.9891 44.7544 13.8312 44.7602 13.7163C44.7659 13.6014 44.7774 13.5182 44.7946 13.4665C44.8061 13.409 44.8262 13.3746 44.855 13.3631C44.8779 13.3458 44.9066 13.3372 44.9411 13.3372H45.2685ZM47.4051 16.6542H44.9411V15.4652H47.4051V16.6542ZM47.9739 13.3372C48.0083 13.3372 48.0399 13.3257 48.0686 13.3028C48.0973 13.2741 48.1117 13.2396 48.1117 13.1994V11.9157H49.6711V13.3372C49.6711 13.6129 49.6309 13.8542 49.5505 14.0609C49.4758 14.2677 49.3695 14.44 49.2317 14.5778C49.0939 14.7157 48.9273 14.8219 48.732 14.8966C48.5425 14.9655 48.3357 15 48.1117 15H47.4483C47.4139 15 47.3851 14.9943 47.3622 14.9828C47.3334 14.9713 47.3133 14.9397 47.3019 14.888C47.2846 14.8306 47.2731 14.7473 47.2674 14.6382C47.2617 14.529 47.2588 14.3797 47.2588 14.1902C47.2588 13.9891 47.2617 13.8312 47.2674 13.7163C47.2731 13.6014 47.2846 13.5182 47.3019 13.4665C47.3133 13.409 47.3334 13.3746 47.3622 13.3631C47.3851 13.3458 47.4139 13.3372 47.4483 13.3372H47.9739ZM49.3954 16.6542H47.8274V15.4652H49.3954V16.6542ZM54.2298 13.3372C54.2642 13.3372 54.293 13.3458 54.3159 13.3631C54.3389 13.3746 54.3561 13.4062 54.3676 13.4578C54.3848 13.5095 54.3963 13.5899 54.4021 13.6991C54.4078 13.8082 54.4107 13.9575 54.4107 14.1471C54.4107 14.3481 54.4078 14.5061 54.4021 14.6209C54.3963 14.7358 54.3848 14.8219 54.3676 14.8794C54.3561 14.9368 54.3389 14.9713 54.3159 14.9828C54.293 14.9943 54.2642 15 54.2298 15H53.7387C53.7215 15.3504 53.6554 15.6576 53.5405 15.9218C53.4314 16.1861 53.2821 16.4072 53.0925 16.5852C52.903 16.769 52.679 16.9069 52.4205 16.9988C52.1621 17.0907 51.8806 17.1366 51.5762 17.1366H50.2925L50.1978 15.4738H51.671C51.8605 15.4738 51.9926 15.4365 52.0673 15.3618C52.1477 15.2872 52.1879 15.1666 52.1879 15H52.0501C51.694 15 51.4011 14.9598 51.1713 14.8794C50.9416 14.799 50.7606 14.687 50.6285 14.5434C50.5022 14.3941 50.4132 14.2131 50.3615 14.0006C50.3155 13.7881 50.2925 13.5526 50.2925 13.2942C50.2925 13.0472 50.3299 12.8117 50.4045 12.5877C50.4792 12.3637 50.5883 12.1684 50.7319 12.0018C50.8813 11.8295 51.0622 11.6946 51.2747 11.5969C51.4872 11.4935 51.7284 11.4418 51.9984 11.4418C52.2339 11.4418 52.4579 11.4763 52.6704 11.5452C52.8829 11.6142 53.0696 11.7262 53.2304 11.8812C53.3912 12.0306 53.5176 12.2258 53.6095 12.4671C53.7071 12.7026 53.7559 12.9926 53.7559 13.3372H54.2298ZM51.7658 13.1908C51.7658 13.2827 51.783 13.3545 51.8175 13.4062C51.8519 13.4578 51.9295 13.4837 52.0501 13.4837H52.2827V13.2425C52.2827 13.0242 52.1937 12.9151 52.0156 12.9151C51.8491 12.9151 51.7658 13.007 51.7658 13.1908ZM54.7551 13.3372C54.7896 13.3372 54.8212 13.3257 54.8499 13.3028C54.8786 13.2741 54.893 13.2396 54.893 13.1994V11.9157H56.4523V13.3372C56.4523 13.6129 56.4121 13.8542 56.3317 14.0609C56.2571 14.2677 56.1508 14.44 56.013 14.5778C55.8751 14.7157 55.7085 14.8219 55.5133 14.8966C55.3237 14.9655 55.117 15 54.893 15H54.2296C54.1951 15 54.1664 14.9943 54.1434 14.9828C54.1147 14.9713 54.0946 14.9397 54.0831 14.888C54.0659 14.8306 54.0544 14.7473 54.0486 14.6382C54.0429 14.529 54.04 14.3797 54.04 14.1902C54.04 13.9891 54.0429 13.8312 54.0486 13.7163C54.0544 13.6014 54.0659 13.5182 54.0831 13.4665C54.0946 13.409 54.1147 13.3746 54.1434 13.3631C54.1664 13.3458 54.1951 13.3372 54.2296 13.3372H54.7551ZM56.6936 11.4418H54.2296V10.2615H56.6936V11.4418ZM59.0964 13.3372C59.1308 13.3372 59.1596 13.3458 59.1825 13.3631C59.2113 13.3746 59.2314 13.4062 59.2428 13.4578C59.2601 13.5095 59.2716 13.5899 59.2773 13.6991C59.2831 13.8082 59.2859 13.9575 59.2859 14.1471C59.2859 14.3481 59.2831 14.5061 59.2773 14.6209C59.2716 14.7358 59.2601 14.8219 59.2428 14.8794C59.2314 14.9368 59.2113 14.9713 59.1825 14.9828C59.1596 14.9943 59.1308 15 59.0964 15H58.6742C58.3756 15 58.1228 14.9569 57.9161 14.8708C57.7151 14.7789 57.5514 14.6583 57.425 14.5089C57.2986 14.3596 57.2067 14.1844 57.1493 13.9834C57.0919 13.7766 57.0632 13.5612 57.0632 13.3372V9.74462H58.6312V13.1994C58.6312 13.2913 58.6771 13.3372 58.769 13.3372H59.0964ZM59.6181 13.3372C59.6525 13.3372 59.6841 13.3257 59.7129 13.3028C59.7416 13.2741 59.7559 13.2396 59.7559 13.1994V11.9157H61.3153V13.3372C61.3153 13.6129 61.2751 13.8542 61.1947 14.0609C61.12 14.2677 61.0138 14.44 60.8759 14.5778C60.7381 14.7157 60.5715 14.8219 60.3762 14.8966C60.1867 14.9655 59.9799 15 59.7559 15H59.0925C59.0581 15 59.0294 14.9943 59.0064 14.9828C58.9777 14.9713 58.9576 14.9397 58.9461 14.888C58.9289 14.8306 58.9174 14.7473 58.9116 14.6382C58.9059 14.529 58.903 14.3797 58.903 14.1902C58.903 13.9891 58.9059 13.8312 58.9116 13.7163C58.9174 13.6014 58.9289 13.5182 58.9461 13.4665C58.9576 13.409 58.9777 13.3746 59.0064 13.3631C59.0294 13.3458 59.0581 13.3372 59.0925 13.3372H59.6181ZM60.9362 18.0757H59.7042V16.8868H60.9362V18.0757ZM61.5565 16.6542H59.0925V15.4652H61.5565V16.6542ZM62.7496 13.3372C62.7496 13.0558 62.8071 12.7916 62.922 12.5446C63.0368 12.2919 63.2149 12.0191 63.4561 11.7262L63.0943 11.3471L64.197 10.2615C64.6393 10.6636 64.9954 11.0139 65.2653 11.3126C65.5353 11.6055 65.7421 11.8697 65.8856 12.1052C66.035 12.335 66.1326 12.5475 66.1786 12.7428C66.2303 12.9381 66.2561 13.1362 66.2561 13.3372C66.2561 13.5785 66.2102 13.7996 66.1183 14.0006C66.0264 14.2016 65.9 14.3768 65.7392 14.5262C65.5841 14.6755 65.3946 14.7932 65.1706 14.8794C64.9523 14.9598 64.714 15 64.4555 15C64.197 15 63.9615 14.9598 63.749 14.8794C63.5365 14.799 63.3556 14.687 63.2063 14.5434C63.0627 14.3998 62.9507 14.2275 62.8703 14.0265C62.7899 13.8197 62.7496 13.5899 62.7496 13.3372ZM64.7829 13.1822C64.7829 13.0213 64.6881 12.8548 64.4986 12.6825C64.309 12.8663 64.2143 13.0328 64.2143 13.1822C64.2143 13.3487 64.309 13.432 64.4986 13.432C64.6881 13.432 64.7829 13.3487 64.7829 13.1822ZM68.8055 13.3372C68.84 13.3372 68.8687 13.3458 68.8917 13.3631C68.9204 13.3746 68.9405 13.4062 68.952 13.4578C68.9692 13.5095 68.9807 13.5899 68.9864 13.6991C68.9922 13.8082 68.9951 13.9575 68.9951 14.1471C68.9951 14.3481 68.9922 14.5061 68.9864 14.6209C68.9807 14.7358 68.9692 14.8219 68.952 14.8794C68.9405 14.9368 68.9204 14.9713 68.8917 14.9828C68.8687 14.9943 68.84 15 68.8055 15H68.3834C68.0847 15 67.832 14.9569 67.6252 14.8708C67.4242 14.7789 67.2605 14.6583 67.1341 14.5089C67.0078 14.3596 66.9159 14.1844 66.8584 13.9834C66.801 13.7766 66.7723 13.5612 66.7723 13.3372V9.74462H68.3403V13.1994C68.3403 13.2913 68.3862 13.3372 68.4781 13.3372H68.8055ZM68.9912 9.064L72.11 7.93538L72.3081 8.86585L68.9912 10.0806V9.064ZM70.5075 13.3372C70.6052 13.3372 70.654 13.2999 70.654 13.2252C70.654 13.1793 70.6224 13.1218 70.5592 13.0529L68.9912 11.4935V10.3563L72.3598 9.12431L72.7389 10.6837L71.0761 11.304L71.7395 11.9674C72.0497 12.2775 72.3053 12.5245 72.5063 12.7083C72.7131 12.8864 72.8854 13.0242 73.0232 13.1218C73.1668 13.2137 73.2874 13.2741 73.3851 13.3028C73.4827 13.3257 73.5803 13.3372 73.678 13.3372H73.8245C73.8589 13.3372 73.8876 13.3458 73.9106 13.3631C73.9336 13.3746 73.9537 13.4062 73.9709 13.4578C73.9881 13.5095 73.9996 13.5899 74.0054 13.6991C74.0111 13.8082 74.014 13.9575 74.014 14.1471C74.014 14.3481 74.0111 14.5061 74.0054 14.6209C73.9996 14.7358 73.9881 14.8219 73.9709 14.8794C73.9537 14.9368 73.9336 14.9713 73.9106 14.9828C73.8876 14.9943 73.8589 15 73.8245 15H73.678C73.477 15 73.3018 14.9971 73.1525 14.9914C73.0089 14.9799 72.8768 14.9598 72.7561 14.9311C72.6413 14.8966 72.5321 14.8478 72.4288 14.7846C72.3311 14.7214 72.2277 14.6353 72.1186 14.5262C71.9693 14.6927 71.7912 14.8133 71.5845 14.888C71.3777 14.9627 71.1451 15 70.8866 15H68.8017C68.7672 15 68.7385 14.9943 68.7155 14.9828C68.6868 14.9713 68.6667 14.9397 68.6552 14.888C68.638 14.8306 68.6265 14.7473 68.6208 14.6382C68.615 14.529 68.6121 14.3797 68.6121 14.1902C68.6121 13.9891 68.615 13.8312 68.6208 13.7163C68.6265 13.6014 68.638 13.5182 68.6552 13.4665C68.6667 13.409 68.6868 13.3746 68.7155 13.3631C68.7385 13.3458 68.7672 13.3372 68.8017 13.3372H70.5075ZM74.0089 13.3372C74.0491 13.3372 74.0835 13.3257 74.1123 13.3028C74.141 13.2741 74.1553 13.2396 74.1553 13.1994V11.9157H75.6716V13.1994C75.6716 13.2396 75.686 13.2741 75.7147 13.3028C75.7434 13.3257 75.7779 13.3372 75.8181 13.3372C75.8526 13.3372 75.8842 13.3257 75.9129 13.3028C75.9416 13.2741 75.9559 13.2396 75.9559 13.1994V11.9157H77.4723V13.1994C77.4723 13.2396 77.4866 13.2741 77.5153 13.3028C77.5441 13.3257 77.5785 13.3372 77.6187 13.3372C77.6532 13.3372 77.6848 13.3257 77.7135 13.3028C77.7422 13.2741 77.7566 13.2396 77.7566 13.1994V11.9157H79.2729V13.1994C79.2729 13.2396 79.2872 13.2741 79.3159 13.3028C79.3447 13.3257 79.3763 13.3372 79.4107 13.3372H79.7467C79.7812 13.3372 79.8099 13.3458 79.8329 13.3631C79.8616 13.3746 79.8817 13.4062 79.8932 13.4578C79.9104 13.5095 79.9219 13.5899 79.9276 13.6991C79.9334 13.8082 79.9363 13.9575 79.9363 14.1471C79.9363 14.3481 79.9334 14.5061 79.9276 14.6209C79.9219 14.7358 79.9104 14.8219 79.8932 14.8794C79.8817 14.9368 79.8616 14.9713 79.8329 14.9828C79.8099 14.9943 79.7812 15 79.7467 15H79.471C79.2757 15 79.1034 14.9828 78.9541 14.9483C78.8105 14.9138 78.6784 14.8363 78.5578 14.7157C78.4142 14.8363 78.262 14.9138 78.1012 14.9483C77.9461 14.9828 77.7853 15 77.6187 15C77.4981 15 77.3545 14.9828 77.1879 14.9483C77.0214 14.9138 76.8807 14.8363 76.7658 14.7157C76.6165 14.8363 76.4757 14.9138 76.3436 14.9483C76.2173 14.9828 76.1196 15 76.0507 15H75.8181C75.6975 15 75.5539 14.9828 75.3873 14.9483C75.2208 14.9138 75.0772 14.8363 74.9566 14.7157C74.8187 14.8363 74.6837 14.9138 74.5516 14.9483C74.4195 14.9828 74.319 15 74.2501 15H73.6815C73.647 15 73.6183 14.9943 73.5953 14.9828C73.5666 14.9713 73.5465 14.9397 73.535 14.888C73.5178 14.8306 73.5063 14.7473 73.5006 14.6382C73.4948 14.529 73.4919 14.3797 73.4919 14.1902C73.4919 13.9891 73.4948 13.8312 73.5006 13.7163C73.5063 13.6014 73.5178 13.5182 73.535 13.4665C73.5465 13.409 73.5666 13.3746 73.5953 13.3631C73.6183 13.3458 73.647 13.3372 73.6815 13.3372H74.0089ZM77.231 10.0203H75.999V8.84H77.231V10.0203ZM77.8513 11.4418H75.3873V10.2615H77.8513V11.4418ZM80.2731 13.3372C80.3076 13.3372 80.3392 13.3257 80.3679 13.3028C80.3966 13.2741 80.411 13.2396 80.411 13.1994V11.9157H81.9704V13.3372C81.9704 13.6129 81.9302 13.8542 81.8498 14.0609C81.7751 14.2677 81.6688 14.44 81.531 14.5778C81.3931 14.7157 81.2266 14.8219 81.0313 14.8966C80.8418 14.9655 80.635 15 80.411 15H79.7476C79.7131 15 79.6844 14.9943 79.6614 14.9828C79.6327 14.9713 79.6126 14.9397 79.6011 14.888C79.5839 14.8306 79.5724 14.7473 79.5667 14.6382C79.5609 14.529 79.5581 14.3797 79.5581 14.1902C79.5581 13.9891 79.5609 13.8312 79.5667 13.7163C79.5724 13.6014 79.5839 13.5182 79.6011 13.4665C79.6126 13.409 79.6327 13.3746 79.6614 13.3631C79.6844 13.3458 79.7131 13.3372 79.7476 13.3372H80.2731ZM82.2116 16.6542H79.7476V15.4652H82.2116V16.6542ZM84.5303 13.3372C84.5647 13.3372 84.5935 13.3458 84.6164 13.3631C84.6451 13.3746 84.6653 13.4062 84.6767 13.4578C84.694 13.5095 84.7055 13.5899 84.7112 13.6991C84.7169 13.8082 84.7198 13.9575 84.7198 14.1471C84.7198 14.3481 84.7169 14.5061 84.7112 14.6209C84.7055 14.7358 84.694 14.8219 84.6767 14.8794C84.6653 14.9368 84.6451 14.9713 84.6164 14.9828C84.5935 14.9943 84.5647 15 84.5303 15H84.1081C83.8095 15 83.5567 14.9569 83.35 14.8708C83.1489 14.7789 82.9853 14.6583 82.8589 14.5089C82.7325 14.3596 82.6406 14.1844 82.5832 13.9834C82.5258 13.7766 82.497 13.5612 82.497 13.3372V9.74462H84.065V13.1994C84.065 13.2913 84.111 13.3372 84.2029 13.3372H84.5303ZM84.8538 13.3372C84.894 13.3372 84.9285 13.3257 84.9572 13.3028C84.9859 13.2741 85.0003 13.2396 85.0003 13.1994C85.0003 12.625 85.1525 12.1742 85.4569 11.8468C85.7671 11.5136 86.1892 11.3471 86.7234 11.3471C87.2862 11.3471 87.7084 11.5108 87.9898 11.8382C88.2713 12.1655 88.412 12.6021 88.412 13.1477C88.412 13.7221 88.2569 14.1758 87.9468 14.5089C87.6366 14.8363 87.2087 15 86.6631 15C86.4965 15 86.3328 14.977 86.172 14.9311C86.0112 14.8851 85.8733 14.8133 85.7584 14.7157C85.6895 14.7789 85.6149 14.8277 85.5344 14.8622C85.4598 14.8966 85.3736 14.9253 85.276 14.9483C85.1841 14.9713 85.0778 14.9856 84.9572 14.9914C84.8366 14.9971 84.693 15 84.5264 15C84.492 15 84.4633 14.9943 84.4403 14.9828C84.4116 14.9713 84.3915 14.9397 84.38 14.888C84.3628 14.8306 84.3513 14.7473 84.3455 14.6382C84.3398 14.529 84.3369 14.3797 84.3369 14.1902C84.3369 13.9891 84.3398 13.8312 84.3455 13.7163C84.3513 13.6014 84.3628 13.5182 84.38 13.4665C84.3915 13.409 84.4116 13.3746 84.4403 13.3631C84.4633 13.3458 84.492 13.3372 84.5264 13.3372H84.8538ZM86.4218 13.1477C86.4218 13.2683 86.4477 13.3458 86.4994 13.3803C86.5511 13.4148 86.6142 13.432 86.6889 13.432C86.7521 13.432 86.8095 13.4148 86.8612 13.3803C86.9129 13.3458 86.9388 13.2683 86.9388 13.1477C86.9388 12.9582 86.8555 12.8634 86.6889 12.8634C86.5109 12.8634 86.4218 12.9582 86.4218 13.1477ZM90.5961 14.6209C90.5961 14.9426 90.5416 15.247 90.4324 15.5342C90.3233 15.8213 90.1711 16.0712 89.9758 16.2837C89.7805 16.5019 89.545 16.6743 89.2693 16.8006C88.9994 16.927 88.6979 16.9902 88.3647 16.9902H87.417L87.2706 15.336H88.1752C88.4853 15.336 88.7036 15.2728 88.83 15.1465C88.9621 15.0201 89.0281 14.8622 89.0281 14.6726V11.9157H90.5961V14.6209ZM90.5961 11.4418H89.0281V10.2615H90.5961V11.4418ZM92.1473 10.6837H93.7153V15H92.1473V10.6837ZM92.3799 10.2098C92.3052 10.2098 92.2449 10.2185 92.199 10.2357C92.1588 10.2472 92.1157 10.2931 92.0697 10.3735L91.7596 10.968L90.7688 10.4425L91.0962 9.736C91.1709 9.57518 91.2455 9.44308 91.3202 9.33969C91.3949 9.23056 91.4782 9.14728 91.5701 9.08985C91.662 9.02667 91.7711 8.98359 91.8974 8.96062C92.0295 8.93764 92.1904 8.92615 92.3799 8.92615H94.1805V10.2098H92.3799Z" fill="#28449F"/>
<path d="M2.31522 31.8111C2.43009 31.8111 2.52486 31.7967 2.59953 31.768C2.6742 31.7335 2.73163 31.6933 2.77184 31.6474C2.81204 31.5957 2.83789 31.5383 2.84938 31.4751C2.86661 31.4062 2.87522 31.3372 2.87522 31.2683C2.87522 31.1305 2.83502 31.0185 2.75461 30.9323C2.67994 30.8404 2.53348 30.7945 2.31522 30.7945H1.6863V31.8111H2.31522ZM1.6863 28.6837V29.7003H2.09984C2.28938 29.7003 2.44158 29.6687 2.55645 29.6055C2.67132 29.5424 2.72876 29.4074 2.72876 29.2006C2.72876 28.9996 2.68281 28.8646 2.59091 28.7957C2.49902 28.721 2.35543 28.6837 2.16014 28.6837H1.6863ZM2.16014 27.512C2.5622 27.512 2.90394 27.5493 3.18538 27.624C3.47255 27.6929 3.70517 27.7963 3.88322 27.9342C4.06702 28.0663 4.19912 28.2271 4.27953 28.4166C4.36568 28.6062 4.40876 28.8187 4.40876 29.0542C4.40876 29.2724 4.3542 29.4763 4.24507 29.6658C4.14168 29.8496 3.95789 30.0047 3.69368 30.1311C3.98086 30.2459 4.1905 30.401 4.32261 30.5963C4.45471 30.7858 4.52076 31.0213 4.52076 31.3028C4.52076 31.544 4.47194 31.7709 4.3743 31.9834C4.27666 32.1902 4.13307 32.3682 3.94353 32.5175C3.75973 32.6669 3.53286 32.7846 3.26291 32.8708C2.99297 32.9569 2.68281 33 2.33245 33H0.0321446V27.512H2.16014ZM7.02265 31.5095C6.75271 31.5383 6.57753 31.5842 6.49712 31.6474C6.42245 31.7048 6.38512 31.7709 6.38512 31.8455C6.38512 31.9949 6.44255 32.0695 6.55742 32.0695C6.64932 32.0695 6.72686 32.0523 6.79004 32.0178C6.85896 31.9834 6.9365 31.9231 7.02265 31.8369V31.5095ZM5.02388 29.6658C5.28809 29.4246 5.57527 29.2494 5.88542 29.1403C6.20132 29.0254 6.53158 28.968 6.87619 28.968C7.13465 28.968 7.36727 29.0082 7.57404 29.0886C7.78655 29.1633 7.9646 29.2724 8.10819 29.416C8.25753 29.5538 8.36953 29.7233 8.44419 29.9243C8.5246 30.1196 8.56481 30.335 8.56481 30.5705V33H7.82388C7.67455 33 7.55681 32.9856 7.47065 32.9569C7.39024 32.9225 7.32706 32.8535 7.28112 32.7502C7.13178 32.8478 6.97383 32.9253 6.80727 32.9828C6.64645 33.0345 6.44829 33.0603 6.21281 33.0603C5.79927 33.0603 5.47188 32.9627 5.23065 32.7674C4.98942 32.5721 4.86881 32.2849 4.86881 31.9058C4.86881 31.768 4.90327 31.6273 4.97219 31.4837C5.04112 31.3344 5.15599 31.1994 5.31681 31.0788C5.48337 30.9524 5.7045 30.8462 5.98019 30.76C6.26163 30.6681 6.60912 30.6107 7.02265 30.5877V30.5705C7.02265 30.3982 6.99968 30.2747 6.95373 30.2C6.90778 30.1196 6.83599 30.0794 6.73835 30.0794C6.62922 30.0794 6.53732 30.0937 6.46265 30.1225C6.39373 30.1512 6.32194 30.1856 6.24727 30.2258C6.18409 30.2546 6.12091 30.2833 6.05773 30.312C5.99455 30.335 5.90265 30.3465 5.78204 30.3465C5.64994 30.3465 5.54081 30.3235 5.45465 30.2775C5.3685 30.2316 5.30819 30.1713 5.27373 30.0966L5.02388 29.6658ZM10.7756 29.1403C10.9824 29.0369 11.2351 28.9852 11.5337 28.9852C12.0162 28.9852 12.3838 29.1288 12.6365 29.416C12.8892 29.7032 13.0156 30.0708 13.0156 30.5188V33H11.4648V30.5188C11.4648 30.3809 11.4419 30.2747 11.3959 30.2C11.3557 30.1196 11.2896 30.0794 11.1977 30.0794C11.0484 30.0794 10.9077 30.1368 10.7756 30.2517V33H9.22483V27.4086H10.7756V29.1403ZM13.7519 33V29.0369H14.6479C14.7627 29.0369 14.8546 29.0542 14.9236 29.0886C14.9982 29.1231 15.0557 29.169 15.0959 29.2265C15.205 29.1518 15.3285 29.0944 15.4663 29.0542C15.6042 29.0082 15.7621 28.9852 15.9402 28.9852C16.1412 28.9852 16.3221 29.0197 16.483 29.0886C16.6438 29.1575 16.773 29.2552 16.8706 29.3815C17.02 29.2494 17.1952 29.1518 17.3962 29.0886C17.603 29.0197 17.8097 28.9852 18.0165 28.9852C18.5104 28.9852 18.8895 29.1202 19.1537 29.3902C19.4237 29.6544 19.5586 30.0306 19.5586 30.5188V33H17.9993V30.5188C17.9993 30.2258 17.9074 30.0794 17.7236 30.0794C17.6432 30.0794 17.5742 30.1196 17.5168 30.2C17.4594 30.2747 17.4306 30.3809 17.4306 30.5188V33H15.8885V30.5188C15.8885 30.3579 15.8655 30.2459 15.8196 30.1828C15.7736 30.1138 15.7047 30.0794 15.6128 30.0794C15.5668 30.0794 15.518 30.0909 15.4663 30.1138C15.4146 30.1311 15.3601 30.1713 15.3026 30.2345V33H13.7519ZM22.2342 31.5095C21.9642 31.5383 21.7891 31.5842 21.7087 31.6474C21.634 31.7048 21.5967 31.7709 21.5967 31.8455C21.5967 31.9949 21.6541 32.0695 21.769 32.0695C21.8609 32.0695 21.9384 32.0523 22.0016 32.0178C22.0705 31.9834 22.148 31.9231 22.2342 31.8369V31.5095ZM20.2354 29.6658C20.4996 29.4246 20.7868 29.2494 21.097 29.1403C21.4129 29.0254 21.7431 28.968 22.0877 28.968C22.3462 28.968 22.5788 29.0082 22.7856 29.0886C22.9981 29.1633 23.1761 29.2724 23.3197 29.416C23.4691 29.5538 23.5811 29.7233 23.6557 29.9243C23.7361 30.1196 23.7763 30.335 23.7763 30.5705V33H23.0354C22.8861 33 22.7683 32.9856 22.6822 32.9569C22.6018 32.9225 22.5386 32.8535 22.4927 32.7502C22.3433 32.8478 22.1854 32.9253 22.0188 32.9828C21.858 33.0345 21.6598 33.0603 21.4243 33.0603C21.0108 33.0603 20.6834 32.9627 20.4422 32.7674C20.201 32.5721 20.0803 32.2849 20.0803 31.9058C20.0803 31.768 20.1148 31.6273 20.1837 31.4837C20.2527 31.3344 20.3675 31.1994 20.5283 31.0788C20.6949 30.9524 20.916 30.8462 21.1917 30.76C21.4732 30.6681 21.8207 30.6107 22.2342 30.5877V30.5705C22.2342 30.3982 22.2112 30.2747 22.1653 30.2C22.1193 30.1196 22.0475 30.0794 21.9499 30.0794C21.8408 30.0794 21.7489 30.0937 21.6742 30.1225C21.6053 30.1512 21.5335 30.1856 21.4588 30.2258C21.3956 30.2546 21.3324 30.2833 21.2693 30.312C21.2061 30.335 21.1142 30.3465 20.9936 30.3465C20.8615 30.3465 20.7523 30.3235 20.6662 30.2775C20.58 30.2316 20.5197 30.1713 20.4853 30.0966L20.2354 29.6658ZM25.341 29.0369C25.4444 29.0369 25.5363 29.057 25.6167 29.0972C25.6971 29.1317 25.7574 29.1834 25.7976 29.2523C25.924 29.1719 26.0618 29.1087 26.2111 29.0628C26.3605 29.0111 26.5385 28.9852 26.7453 28.9852C27.2277 28.9852 27.5953 29.1288 27.8481 29.416C28.1008 29.7032 28.2271 30.0708 28.2271 30.5188V33H26.6764V30.5188C26.6764 30.3809 26.6534 30.2747 26.6074 30.2C26.5672 30.1196 26.5012 30.0794 26.4093 30.0794C26.26 30.0794 26.1192 30.1368 25.9871 30.2517V33H24.4364V29.0369H25.341ZM36.3584 27.512V33H34.8507V30.3206C34.6957 30.6308 34.5377 30.9352 34.3769 31.2338C34.2218 31.5325 34.0667 31.8341 33.9117 32.1385C33.8485 32.2361 33.7652 32.3165 33.6618 32.3797C33.5584 32.4371 33.4321 32.4658 33.2827 32.4658H33.1277C32.8233 32.4658 32.6136 32.3567 32.4987 32.1385L31.5597 30.2948V33H30.052V27.512H31.1892C31.3443 27.512 31.4678 27.5264 31.5597 27.5551C31.6573 27.5781 31.732 27.647 31.7837 27.7618L33.1966 30.5446L34.6181 27.7618C34.6871 27.6355 34.7617 27.5637 34.8421 27.5465C34.9283 27.5235 35.0546 27.512 35.2212 27.512H36.3584ZM39.6089 30.4412C39.5974 30.3264 39.56 30.2287 39.4969 30.1483C39.4394 30.0622 39.3389 30.0191 39.1953 30.0191C38.9656 30.0191 38.8076 30.1598 38.7215 30.4412H39.6089ZM38.687 31.3458C38.733 31.5756 38.8076 31.7364 38.911 31.8283C39.0201 31.9202 39.158 31.9662 39.3246 31.9662C39.4337 31.9662 39.5285 31.9518 39.6089 31.9231C39.6893 31.8886 39.7639 31.8542 39.8329 31.8197C39.9018 31.7795 39.9707 31.745 40.0396 31.7163C40.1143 31.6818 40.1976 31.6646 40.2895 31.6646C40.3814 31.6646 40.456 31.6761 40.5135 31.6991C40.5709 31.7221 40.6226 31.7565 40.6686 31.8025L41.0649 32.2935C40.927 32.4486 40.7777 32.5778 40.6169 32.6812C40.4618 32.7789 40.3038 32.8564 40.143 32.9138C39.9822 32.9713 39.8214 33.0086 39.6606 33.0258C39.5055 33.0488 39.3561 33.0603 39.2126 33.0603C38.9254 33.0603 38.6554 33.0144 38.4027 32.9225C38.15 32.8306 37.9289 32.6956 37.7393 32.5175C37.5498 32.3395 37.3976 32.1184 37.2827 31.8542C37.1736 31.5899 37.119 31.2855 37.119 30.9409C37.119 30.6767 37.165 30.4269 37.2569 30.1914C37.3545 29.9559 37.4924 29.7491 37.6704 29.5711C37.8485 29.393 38.0638 29.2523 38.3166 29.1489C38.5693 29.0398 38.8565 28.9852 39.1781 28.9852C39.4538 28.9852 39.7065 29.0283 39.9362 29.1145C40.166 29.1949 40.3641 29.3126 40.5307 29.4677C40.6973 29.6228 40.8265 29.8152 40.9184 30.0449C41.0103 30.2689 41.0562 30.5245 41.0562 30.8117C41.0562 31.0242 41.0275 31.1678 40.9701 31.2425C40.9127 31.3114 40.7834 31.3458 40.5824 31.3458H38.687ZM43.8314 30.2C43.7625 30.1368 43.7022 30.0966 43.6505 30.0794C43.5988 30.0622 43.5385 30.0535 43.4696 30.0535C43.3375 30.0535 43.2226 30.1253 43.1249 30.2689C43.0331 30.4125 42.9871 30.6652 42.9871 31.0271C42.9871 31.3717 43.0187 31.6101 43.0819 31.7422C43.1508 31.8743 43.2398 31.9403 43.3489 31.9403C43.4351 31.9403 43.5184 31.9173 43.5988 31.8714C43.6849 31.8197 43.7625 31.7623 43.8314 31.6991V30.2ZM45.3994 27.4086V33H44.4776C44.2134 33 44.0525 32.9167 43.9951 32.7502C43.863 32.8421 43.7137 32.9167 43.5471 32.9742C43.3805 33.0316 43.1881 33.0603 42.9699 33.0603C42.7459 33.0603 42.5362 33.0144 42.3409 32.9225C42.1514 32.8306 41.9877 32.6985 41.8499 32.5262C41.712 32.3481 41.6029 32.1356 41.5225 31.8886C41.4421 31.6359 41.4019 31.3487 41.4019 31.0271C41.4019 30.7342 41.4449 30.4613 41.5311 30.2086C41.6173 29.9559 41.7407 29.7376 41.9016 29.5538C42.0624 29.3701 42.2519 29.2265 42.4702 29.1231C42.6942 29.0197 42.9412 28.968 43.2111 28.968C43.3375 28.968 43.4495 28.9795 43.5471 29.0025C43.6505 29.0197 43.7453 29.0455 43.8314 29.08C43.8372 28.8158 43.84 28.5286 43.84 28.2185C43.8458 27.9083 43.8486 27.6384 43.8486 27.4086H45.3994ZM47.6684 29.192V33H46.1177V29.192H47.6684ZM47.7632 28.1065C47.7632 28.2098 47.7402 28.3104 47.6943 28.408C47.6483 28.4999 47.5851 28.5803 47.5047 28.6492C47.4301 28.7182 47.3382 28.7756 47.229 28.8215C47.1199 28.8617 47.005 28.8818 46.8844 28.8818C46.7638 28.8818 46.6518 28.8617 46.5484 28.8215C46.445 28.7756 46.3531 28.7182 46.2727 28.6492C46.1981 28.5803 46.1378 28.4999 46.0918 28.408C46.0516 28.3104 46.0315 28.2098 46.0315 28.1065C46.0315 27.9973 46.0516 27.8968 46.0918 27.8049C46.1378 27.7073 46.1981 27.624 46.2727 27.5551C46.3531 27.4804 46.445 27.423 46.5484 27.3828C46.6518 27.3426 46.7638 27.3225 46.8844 27.3225C47.005 27.3225 47.1199 27.3426 47.229 27.3828C47.3382 27.423 47.4301 27.4804 47.5047 27.5551C47.5851 27.624 47.6483 27.7073 47.6943 27.8049C47.7402 27.8968 47.7632 27.9973 47.7632 28.1065ZM51.4237 30.1225C51.3778 30.1856 51.3289 30.2316 51.2773 30.2603C51.2256 30.289 51.1423 30.3034 51.0274 30.3034C50.8608 30.3034 50.7402 30.2689 50.6656 30.2L50.6742 30.2086C50.6167 30.1684 50.5536 30.1368 50.4846 30.1138C50.4157 30.0851 50.3382 30.0708 50.252 30.0708C50.0567 30.0708 49.9132 30.1541 49.8213 30.3206C49.7351 30.4814 49.692 30.7141 49.692 31.0185C49.692 31.3229 49.7408 31.5584 49.8385 31.7249C49.9361 31.8915 50.0682 31.9748 50.2348 31.9748C50.3324 31.9748 50.41 31.9604 50.4674 31.9317C50.5248 31.8972 50.5765 31.8599 50.6225 31.8197C50.6742 31.7795 50.7287 31.745 50.7862 31.7163C50.8494 31.6818 50.9355 31.6646 51.0446 31.6646C51.1423 31.6646 51.2227 31.6818 51.2859 31.7163C51.3548 31.745 51.4094 31.7824 51.4496 31.8283L51.82 32.2935C51.6822 32.4486 51.5386 32.5778 51.3893 32.6812C51.2399 32.7789 51.0877 32.8564 50.9326 32.9138C50.7833 32.9713 50.6311 33.0086 50.476 33.0258C50.3209 33.0488 50.1716 33.0603 50.028 33.0603C49.7753 33.0603 49.5341 33.0144 49.3043 32.9225C49.0746 32.8306 48.8707 32.6985 48.6926 32.5262C48.5146 32.3481 48.3739 32.1327 48.2705 31.88C48.1671 31.6273 48.1154 31.3401 48.1154 31.0185C48.1154 30.737 48.1585 30.4728 48.2446 30.2258C48.3365 29.9731 48.4686 29.7577 48.6409 29.5797C48.819 29.3959 49.0373 29.2523 49.2957 29.1489C49.5542 29.0398 49.8528 28.9852 50.1917 28.9852C50.5306 28.9852 50.8264 29.0398 51.0791 29.1489C51.3318 29.2581 51.5673 29.4217 51.7856 29.64L51.4237 30.1225ZM54.0623 31.5095C53.7924 31.5383 53.6172 31.5842 53.5368 31.6474C53.4621 31.7048 53.4248 31.7709 53.4248 31.8455C53.4248 31.9949 53.4822 32.0695 53.5971 32.0695C53.689 32.0695 53.7665 32.0523 53.8297 32.0178C53.8986 31.9834 53.9762 31.9231 54.0623 31.8369V31.5095ZM52.0635 29.6658C52.3277 29.4246 52.6149 29.2494 52.9251 29.1403C53.241 29.0254 53.5712 28.968 53.9159 28.968C54.1743 28.968 54.4069 29.0082 54.6137 29.0886C54.8262 29.1633 55.0043 29.2724 55.1479 29.416C55.2972 29.5538 55.4092 29.7233 55.4839 29.9243C55.5643 30.1196 55.6045 30.335 55.6045 30.5705V33H54.8635C54.7142 33 54.5965 32.9856 54.5103 32.9569C54.4299 32.9225 54.3667 32.8535 54.3208 32.7502C54.1714 32.8478 54.0135 32.9253 53.8469 32.9828C53.6861 33.0345 53.488 33.0603 53.2525 33.0603C52.8389 33.0603 52.5115 32.9627 52.2703 32.7674C52.0291 32.5721 51.9085 32.2849 51.9085 31.9058C51.9085 31.768 51.9429 31.6273 52.0119 31.4837C52.0808 31.3344 52.1956 31.1994 52.3565 31.0788C52.523 30.9524 52.7442 30.8462 53.0199 30.76C53.3013 30.6681 53.6488 30.6107 54.0623 30.5877V30.5705C54.0623 30.3982 54.0393 30.2747 53.9934 30.2C53.9474 30.1196 53.8756 30.0794 53.778 30.0794C53.6689 30.0794 53.577 30.0937 53.5023 30.1225C53.4334 30.1512 53.3616 30.1856 53.2869 30.2258C53.2237 30.2546 53.1606 30.2833 53.0974 30.312C53.0342 30.335 52.9423 30.3465 52.8217 30.3465C52.6896 30.3465 52.5805 30.3235 52.4943 30.2775C52.4082 30.2316 52.3479 30.1713 52.3134 30.0966L52.0635 29.6658ZM57.7722 27.4086V33H56.2386V27.4086H57.7722ZM63.0657 31.768V33H59.4558V27.512H61.1272V31.768H63.0657ZM65.3868 31.5095C65.1169 31.5383 64.9417 31.5842 64.8613 31.6474C64.7866 31.7048 64.7493 31.7709 64.7493 31.8455C64.7493 31.9949 64.8067 32.0695 64.9216 32.0695C65.0135 32.0695 65.091 32.0523 65.1542 32.0178C65.2231 31.9834 65.3007 31.9231 65.3868 31.8369V31.5095ZM63.3881 29.6658C63.6523 29.4246 63.9394 29.2494 64.2496 29.1403C64.5655 29.0254 64.8958 28.968 65.2404 28.968C65.4988 28.968 65.7314 29.0082 65.9382 29.0886C66.1507 29.1633 66.3288 29.2724 66.4724 29.416C66.6217 29.5538 66.7337 29.7233 66.8084 29.9243C66.8888 30.1196 66.929 30.335 66.929 30.5705V33H66.1881C66.0387 33 65.921 32.9856 65.8348 32.9569C65.7544 32.9225 65.6912 32.8535 65.6453 32.7502C65.496 32.8478 65.338 32.9253 65.1714 32.9828C65.0106 33.0345 64.8125 33.0603 64.577 33.0603C64.1634 33.0603 63.8361 32.9627 63.5948 32.7674C63.3536 32.5721 63.233 32.2849 63.233 31.9058C63.233 31.768 63.2674 31.6273 63.3364 31.4837C63.4053 31.3344 63.5202 31.1994 63.681 31.0788C63.8476 30.9524 64.0687 30.8462 64.3444 30.76C64.6258 30.6681 64.9733 30.6107 65.3868 30.5877V30.5705C65.3868 30.3982 65.3639 30.2747 65.3179 30.2C65.272 30.1196 65.2002 30.0794 65.1025 30.0794C64.9934 30.0794 64.9015 30.0937 64.8268 30.1225C64.7579 30.1512 64.6861 30.1856 64.6114 30.2258C64.5483 30.2546 64.4851 30.2833 64.4219 30.312C64.3587 30.335 64.2668 30.3465 64.1462 30.3465C64.0141 30.3465 63.905 30.3235 63.8188 30.2775C63.7327 30.2316 63.6724 30.1713 63.6379 30.0966L63.3881 29.6658ZM69.1398 31.8111C69.203 31.8743 69.2633 31.9173 69.3207 31.9403C69.3781 31.9633 69.4327 31.9748 69.4844 31.9748C69.628 31.9748 69.7457 31.903 69.8376 31.7594C69.9353 31.6101 69.9841 31.3487 69.9841 30.9754C69.9841 30.648 69.9468 30.4183 69.8721 30.2862C69.8032 30.1483 69.6998 30.0794 69.5619 30.0794C69.4815 30.0794 69.4097 30.0966 69.3465 30.1311C69.2834 30.1655 69.2144 30.2258 69.1398 30.312V31.8111ZM69.1398 29.1834C69.2489 29.1202 69.3753 29.0714 69.5189 29.0369C69.6624 29.0025 69.8089 28.9852 69.9582 28.9852C70.2052 28.9852 70.4263 29.0312 70.6216 29.1231C70.8226 29.215 70.9921 29.3442 71.1299 29.5108C71.2735 29.6773 71.3826 29.8812 71.4573 30.1225C71.532 30.3637 71.5693 30.6308 71.5693 30.9237C71.5693 31.2453 71.5262 31.5383 71.4401 31.8025C71.3539 32.0609 71.2304 32.2849 71.0696 32.4745C70.9145 32.6583 70.725 32.8018 70.501 32.9052C70.2828 33.0086 70.0415 33.0603 69.7773 33.0603C69.5878 33.0603 69.427 33.0402 69.2949 33C69.1628 32.9541 69.0479 32.8966 68.9502 32.8277C68.91 32.8909 68.8526 32.9368 68.7779 32.9655C68.709 32.9885 68.6315 33 68.5453 33H67.589V27.4086H69.1398V29.1834ZM72.9768 29.0369C73.1319 29.0369 73.2467 29.057 73.3214 29.0972C73.3961 29.1374 73.4478 29.192 73.4765 29.2609C73.5856 29.169 73.7033 29.0972 73.8297 29.0455C73.9561 28.9938 74.1025 28.968 74.2691 28.968C74.4988 28.968 74.7085 29.0341 74.898 29.1662L74.8291 30.0363C74.8176 30.1454 74.7774 30.2172 74.7085 30.2517C74.6453 30.2804 74.5505 30.2948 74.4242 30.2948C74.3438 30.2948 74.2777 30.2919 74.226 30.2862C74.1743 30.2747 74.1198 30.2689 74.0623 30.2689C73.9704 30.2689 73.8929 30.3005 73.8297 30.3637C73.7723 30.4269 73.7148 30.5159 73.6574 30.6308V33H72.1066V29.0369H72.9768ZM77.09 31.5095C76.82 31.5383 76.6448 31.5842 76.5644 31.6474C76.4898 31.7048 76.4524 31.7709 76.4524 31.8455C76.4524 31.9949 76.5099 32.0695 76.6247 32.0695C76.7166 32.0695 76.7942 32.0523 76.8573 32.0178C76.9263 31.9834 77.0038 31.9231 77.09 31.8369V31.5095ZM75.0912 29.6658C75.3554 29.4246 75.6426 29.2494 75.9527 29.1403C76.2686 29.0254 76.5989 28.968 76.9435 28.968C77.202 28.968 77.4346 29.0082 77.6413 29.0886C77.8539 29.1633 78.0319 29.2724 78.1755 29.416C78.3248 29.5538 78.4368 29.7233 78.5115 29.9243C78.5919 30.1196 78.6321 30.335 78.6321 30.5705V33H77.8912C77.7419 33 77.6241 32.9856 77.538 32.9569C77.4575 32.9225 77.3944 32.8535 77.3484 32.7502C77.1991 32.8478 77.0411 32.9253 76.8746 32.9828C76.7138 33.0345 76.5156 33.0603 76.2801 33.0603C75.8666 33.0603 75.5392 32.9627 75.298 32.7674C75.0567 32.5721 74.9361 32.2849 74.9361 31.9058C74.9361 31.768 74.9706 31.6273 75.0395 31.4837C75.1084 31.3344 75.2233 31.1994 75.3841 31.0788C75.5507 30.9524 75.7718 30.8462 76.0475 30.76C76.3289 30.6681 76.6764 30.6107 77.09 30.5877V30.5705C77.09 30.3982 77.067 30.2747 77.021 30.2C76.9751 30.1196 76.9033 30.0794 76.8057 30.0794C76.6965 30.0794 76.6046 30.0937 76.53 30.1225C76.461 30.1512 76.3892 30.1856 76.3146 30.2258C76.2514 30.2546 76.1882 30.2833 76.125 30.312C76.0619 30.335 75.97 30.3465 75.8493 30.3465C75.7172 30.3465 75.6081 30.3235 75.522 30.2775C75.4358 30.2316 75.3755 30.1713 75.341 30.0966L75.0912 29.6658ZM80.8084 33.0603C80.3892 33.0603 80.0675 32.9512 79.8435 32.7329C79.6195 32.5147 79.5075 32.2189 79.5075 31.8455V30.0794C79.3409 30.0794 79.2117 30.0478 79.1198 29.9846C79.0279 29.9157 78.982 29.8238 78.982 29.7089V29.1834L79.5937 29.0628C79.6339 28.9307 79.6712 28.7957 79.7057 28.6578C79.7459 28.5143 79.7803 28.3735 79.809 28.2357C79.8607 28.0519 80.0101 27.96 80.257 27.96H81.0583V29.0369H81.9629V30.0794H81.0583V31.768C81.0583 31.8139 81.0612 31.8542 81.0669 31.8886C81.0726 31.9173 81.0784 31.9317 81.0841 31.9317C81.1186 31.9317 81.1502 31.9173 81.1789 31.8886C81.2134 31.8599 81.2765 31.8455 81.3684 31.8455C81.4603 31.8455 81.5293 31.8599 81.5752 31.8886C81.6269 31.9116 81.67 31.9518 81.7044 32.0092L82.0921 32.6209C81.713 32.9138 81.2852 33.0603 80.8084 33.0603ZM84.3009 28.9852C84.6168 28.9852 84.904 29.0341 85.1624 29.1317C85.4209 29.2236 85.642 29.3586 85.8258 29.5366C86.0154 29.7089 86.1618 29.9214 86.2652 30.1742C86.3686 30.4211 86.4203 30.7026 86.4203 31.0185C86.4203 31.3344 86.3686 31.6187 86.2652 31.8714C86.1618 32.1241 86.0154 32.3395 85.8258 32.5175C85.642 32.6898 85.4209 32.8248 85.1624 32.9225C84.904 33.0144 84.6168 33.0603 84.3009 33.0603C83.985 33.0603 83.6978 33.0144 83.4394 32.9225C83.1809 32.8248 82.9569 32.6898 82.7674 32.5175C82.5836 32.3395 82.44 32.1241 82.3366 31.8714C82.239 31.6187 82.1901 31.3344 82.1901 31.0185C82.1901 30.7026 82.239 30.4211 82.3366 30.1742C82.44 29.9214 82.5836 29.7089 82.7674 29.5366C82.9569 29.3586 83.1809 29.2236 83.4394 29.1317C83.6978 29.0341 83.985 28.9852 84.3009 28.9852ZM84.3009 31.9662C84.6513 31.9662 84.8264 31.6503 84.8264 31.0185C84.8264 30.3924 84.6513 30.0794 84.3009 30.0794C83.9505 30.0794 83.7754 30.3924 83.7754 31.0185C83.7754 31.6503 83.9505 31.9662 84.3009 31.9662ZM87.8181 29.0369C87.9732 29.0369 88.0881 29.057 88.1627 29.0972C88.2374 29.1374 88.2891 29.192 88.3178 29.2609C88.4269 29.169 88.5447 29.0972 88.6711 29.0455C88.7974 28.9938 88.9439 28.968 89.1104 28.968C89.3402 28.968 89.5498 29.0341 89.7394 29.1662L89.6704 30.0363C89.6589 30.1454 89.6187 30.2172 89.5498 30.2517C89.4866 30.2804 89.3919 30.2948 89.2655 30.2948C89.1851 30.2948 89.1191 30.2919 89.0674 30.2862C89.0157 30.2747 88.9611 30.2689 88.9037 30.2689C88.8118 30.2689 88.7342 30.3005 88.6711 30.3637C88.6136 30.4269 88.5562 30.5159 88.4987 30.6308V33H86.948V29.0369H87.8181ZM94.0679 29.0369L91.9916 33.8874C91.9457 33.985 91.8853 34.0597 91.8107 34.1114C91.736 34.1631 91.6125 34.1889 91.4402 34.1889H90.3202L91.1042 32.5348C90.8572 31.9776 90.5988 31.3947 90.3288 30.7858C90.0646 30.177 89.8119 29.5941 89.5707 29.0369H90.8285C90.9836 29.0369 91.0985 29.0628 91.1731 29.1145C91.2478 29.1662 91.3024 29.2351 91.3368 29.3212L91.8882 30.7514L92.3707 29.3212C92.3994 29.2293 92.4626 29.1604 92.5602 29.1145C92.6579 29.0628 92.7641 29.0369 92.879 29.0369H94.0679Z" fill="#28449F"/>
<rect x="102" width="40.9846" height="40.9846" rx="15" fill="#28449F"/>
<path fill-rule="evenodd" clip-rule="evenodd" d="M121.781 4.5631H119.594V5.5839H121.781V4.5631ZM119.594 4.34436H119.375V4.5631V5.5839V5.80263H119.594H121.781H122V5.5839V4.5631V4.34436H121.781H119.594ZM122.802 6.31306H118.5V10.1577C116.693 10.1711 114.921 10.7631 113.353 11.8769C111.78 12.9949 110.467 14.6006 109.541 16.5381C108.615 18.4755 108.108 20.6791 108.068 22.9348C108.029 25.1905 108.46 27.4217 109.318 29.4119L109.386 29.3667V29.4269H118.792V25.7812H111.696C111.484 24.8932 111.382 23.9662 111.399 23.0332C111.425 21.4917 111.772 19.9858 112.405 18.6618C113.037 17.3377 113.935 16.2404 115.01 15.4764C116.074 14.7209 117.275 14.3167 118.5 14.3018V17.6877H122.802V12.8389C122.802 13.3423 123.585 13.7503 124.552 13.7503C124.839 13.7503 125.111 13.7143 125.35 13.6503C125.768 13.9374 126.141 14.2821 126.451 14.6681C126.791 15.092 127.048 15.5575 127.207 16.038C127.367 16.5185 127.425 17.0046 127.38 17.4685C127.35 17.7765 127.274 18.0707 127.156 18.344H124.042V19.8022H128.585L128.597 19.8101C128.598 19.8074 128.6 19.8049 128.602 19.8022H128.635V19.7492C128.968 19.2123 129.173 18.6006 129.237 17.9465C129.303 17.2675 129.217 16.5562 128.984 15.8531C128.75 15.15 128.374 14.4688 127.877 13.8486C127.433 13.2948 126.899 12.7992 126.302 12.3841V7.95486V7.95363V7.9524V7.91719H126.301C126.264 7.43071 125.495 7.04221 124.552 7.04221C123.585 7.04221 122.802 7.45026 122.802 7.95363V6.31306ZM122.802 7.95363C122.802 8.457 123.585 8.86504 124.552 8.86504C124.933 8.86504 125.285 8.80164 125.573 8.69402V12.0985C125.285 11.9909 124.933 11.9275 124.552 11.9275C123.585 11.9275 122.802 12.3355 122.802 12.8389V7.95363ZM118.719 18.4168H122.583V19.4376H118.719V18.4168ZM118.5 18.1981H118.719H122.583H122.802V18.4168V19.4376V19.6564H122.583H118.719H118.5V19.4376V18.4168V18.1981ZM118.5 20.2397H122.802V21.698H118.5V20.2397Z" fill="#F9F9F9"/>
<path d="M121.06 27.6826C121.22 27.7167 121.349 27.7967 121.446 27.9226C121.543 28.0459 121.592 28.1876 121.592 28.3476C121.592 28.5784 121.51 28.762 121.348 28.8984C121.188 29.0322 120.963 29.0991 120.675 29.0991H119.388V26.337H120.632C120.912 26.337 121.131 26.4013 121.289 26.5298C121.449 26.6584 121.529 26.8328 121.529 27.0531C121.529 27.2157 121.485 27.3508 121.399 27.4584C121.315 27.5659 121.202 27.6407 121.06 27.6826ZM120.061 27.4544H120.502C120.612 27.4544 120.696 27.4308 120.754 27.3836C120.814 27.3338 120.844 27.2616 120.844 27.1672C120.844 27.0728 120.814 27.0007 120.754 26.9508C120.696 26.901 120.612 26.8761 120.502 26.8761H120.061V27.4544ZM120.557 28.5561C120.67 28.5561 120.756 28.5312 120.817 28.4813C120.879 28.4289 120.911 28.3541 120.911 28.2571C120.911 28.16 120.878 28.084 120.813 28.0289C120.75 27.9738 120.662 27.9463 120.549 27.9463H120.061V28.5561H120.557ZM123.701 28.6112H122.67L122.505 29.0991H121.801L122.8 26.337H123.579L124.579 29.0991H123.867L123.701 28.6112ZM123.528 28.0918L123.186 27.0807L122.847 28.0918H123.528ZM127.275 26.337V29.0991H126.602V27.962H125.556V29.0991H124.883V26.337H125.556V27.419H126.602V26.337H127.275ZM130.889 26.337V29.0991H130.216V27.4426L129.598 29.0991H129.055L128.434 27.4387V29.0991H127.761V26.337H128.555L129.331 28.2492L130.098 26.337H130.889ZM133.092 28.6112H132.061L131.896 29.0991H131.192L132.191 26.337H132.97L133.969 29.0991H133.257L133.092 28.6112ZM132.919 28.0918L132.576 27.0807L132.238 28.0918H132.919ZM136.744 29.0991H136.072L134.946 27.3954V29.0991H134.273V26.337H134.946L136.072 28.0486V26.337H136.744V29.0991Z" fill="#F9F9F9"/>
<path d="M111.812 30.5876V32.6237H111.606V30.9978L110.88 32.6237H110.729L110.003 31.0037V32.6237H109.797V30.5876H110.015L110.803 32.3523L111.591 30.5876H111.812ZM113.739 31.7355C113.739 31.8063 113.737 31.8604 113.733 31.8978H112.396C112.402 32.0198 112.431 32.1241 112.484 32.2106C112.538 32.2972 112.607 32.3631 112.694 32.4083C112.78 32.4516 112.875 32.4732 112.977 32.4732C113.111 32.4732 113.223 32.4408 113.314 32.3759C113.406 32.3109 113.467 32.2234 113.497 32.1132H113.715C113.676 32.2706 113.591 32.3995 113.461 32.4998C113.333 32.5982 113.172 32.6473 112.977 32.6473C112.826 32.6473 112.69 32.6139 112.57 32.547C112.45 32.4782 112.356 32.3818 112.287 32.2578C112.22 32.1319 112.186 31.9854 112.186 31.8181C112.186 31.6509 112.22 31.5044 112.287 31.3785C112.354 31.2526 112.447 31.1562 112.567 31.0893C112.687 31.0224 112.824 30.9889 112.977 30.9889C113.131 30.9889 113.264 31.0224 113.379 31.0893C113.495 31.1562 113.583 31.2467 113.644 31.3608C113.707 31.4729 113.739 31.5978 113.739 31.7355ZM113.529 31.7296C113.531 31.6096 113.506 31.5073 113.455 31.4227C113.406 31.3381 113.338 31.2742 113.252 31.2309C113.165 31.1876 113.071 31.166 112.968 31.166C112.815 31.166 112.684 31.2152 112.576 31.3135C112.468 31.4119 112.408 31.5506 112.396 31.7296H113.529ZM114.022 31.8152C114.022 31.6499 114.055 31.5053 114.122 31.3814C114.189 31.2555 114.281 31.1591 114.397 31.0922C114.515 31.0234 114.648 30.9889 114.795 30.9889C114.937 30.9889 115.065 31.0234 115.179 31.0922C115.293 31.1611 115.376 31.2506 115.43 31.3608V30.4401H115.636V32.6237H115.43V32.2637C115.38 32.3759 115.3 32.4683 115.188 32.5411C115.075 32.6119 114.944 32.6473 114.792 32.6473C114.645 32.6473 114.512 32.6129 114.394 32.5441C114.278 32.4752 114.186 32.3778 114.119 32.2519C114.054 32.126 114.022 31.9804 114.022 31.8152ZM115.43 31.8181C115.43 31.6883 115.403 31.5742 115.35 31.4758C115.297 31.3775 115.224 31.3017 115.132 31.2486C115.041 31.1955 114.941 31.1689 114.831 31.1689C114.716 31.1689 114.614 31.1945 114.524 31.2457C114.433 31.2968 114.361 31.3716 114.308 31.4699C114.257 31.5663 114.232 31.6814 114.232 31.8152C114.232 31.947 114.257 32.0631 114.308 32.1634C114.361 32.2618 114.433 32.3375 114.524 32.3906C114.614 32.4418 114.716 32.4673 114.831 32.4673C114.941 32.4673 115.041 32.4408 115.132 32.3877C115.224 32.3345 115.297 32.2588 115.35 32.1604C115.403 32.0621 115.43 31.948 115.43 31.8181ZM116.211 30.7086C116.17 30.7086 116.134 30.6938 116.105 30.6643C116.075 30.6348 116.061 30.5984 116.061 30.5552C116.061 30.5119 116.075 30.4765 116.105 30.4489C116.134 30.4194 116.17 30.4047 116.211 30.4047C116.252 30.4047 116.288 30.4194 116.317 30.4489C116.347 30.4765 116.362 30.5119 116.362 30.5552C116.362 30.5984 116.347 30.6348 116.317 30.6643C116.288 30.6938 116.252 30.7086 116.211 30.7086ZM116.314 31.0125V32.6237H116.108V31.0125H116.314ZM116.688 31.8181C116.688 31.6509 116.721 31.5053 116.788 31.3814C116.855 31.2555 116.947 31.1591 117.065 31.0922C117.183 31.0234 117.318 30.9889 117.47 30.9889C117.668 30.9889 117.832 31.0381 117.959 31.1365C118.089 31.2348 118.173 31.3686 118.21 31.5378H117.989C117.961 31.4217 117.901 31.3312 117.809 31.2663C117.718 31.1994 117.605 31.166 117.47 31.166C117.361 31.166 117.264 31.1906 117.177 31.2398C117.091 31.2889 117.022 31.3627 116.971 31.4611C116.922 31.5575 116.897 31.6765 116.897 31.8181C116.897 31.9598 116.922 32.0798 116.971 32.1782C117.022 32.2765 117.091 32.3503 117.177 32.3995C117.264 32.4486 117.361 32.4732 117.47 32.4732C117.605 32.4732 117.718 32.4408 117.809 32.3759C117.901 32.309 117.961 32.2165 117.989 32.0985H118.21C118.173 32.2637 118.089 32.3965 117.959 32.4968C117.83 32.5972 117.666 32.6473 117.47 32.6473C117.318 32.6473 117.183 32.6139 117.065 32.547C116.947 32.4782 116.855 32.3818 116.788 32.2578C116.721 32.1319 116.688 31.9854 116.688 31.8181ZM118.497 31.8152C118.497 31.6499 118.53 31.5053 118.595 31.3814C118.662 31.2555 118.753 31.1591 118.869 31.0922C118.987 31.0234 119.12 30.9889 119.268 30.9889C119.421 30.9889 119.553 31.0244 119.663 31.0952C119.775 31.166 119.856 31.2565 119.905 31.3667V31.0125H120.112V32.6237H119.905V32.2667C119.854 32.3768 119.772 32.4683 119.66 32.5411C119.55 32.6119 119.418 32.6473 119.265 32.6473C119.119 32.6473 118.987 32.6129 118.869 32.5441C118.753 32.4752 118.662 32.3778 118.595 32.2519C118.53 32.126 118.497 31.9804 118.497 31.8152ZM119.905 31.8181C119.905 31.6883 119.878 31.5742 119.825 31.4758C119.772 31.3775 119.699 31.3017 119.607 31.2486C119.516 31.1955 119.416 31.1689 119.306 31.1689C119.192 31.1689 119.09 31.1945 118.999 31.2457C118.909 31.2968 118.837 31.3716 118.784 31.4699C118.732 31.5663 118.707 31.6814 118.707 31.8152C118.707 31.947 118.732 32.0631 118.784 32.1634C118.837 32.2618 118.909 32.3375 118.999 32.3906C119.09 32.4418 119.192 32.4673 119.306 32.4673C119.416 32.4673 119.516 32.4408 119.607 32.3877C119.699 32.3345 119.772 32.2588 119.825 32.1604C119.878 32.0621 119.905 31.948 119.905 31.8181ZM120.79 30.4401V32.6237H120.583V30.4401H120.79ZM122.274 30.4401V32.6237H122.067V30.4401H122.274ZM122.647 31.8152C122.647 31.6499 122.679 31.5053 122.744 31.3814C122.811 31.2555 122.903 31.1591 123.019 31.0922C123.137 31.0234 123.27 30.9889 123.417 30.9889C123.571 30.9889 123.703 31.0244 123.813 31.0952C123.925 31.166 124.005 31.2565 124.055 31.3667V31.0125H124.261V32.6237H124.055V32.2667C124.003 32.3768 123.922 32.4683 123.81 32.5411C123.7 32.6119 123.568 32.6473 123.414 32.6473C123.269 32.6473 123.137 32.6129 123.019 32.5441C122.903 32.4752 122.811 32.3778 122.744 32.2519C122.679 32.126 122.647 31.9804 122.647 31.8152ZM124.055 31.8181C124.055 31.6883 124.028 31.5742 123.975 31.4758C123.922 31.3775 123.849 31.3017 123.757 31.2486C123.666 31.1955 123.566 31.1689 123.456 31.1689C123.342 31.1689 123.239 31.1945 123.149 31.2457C123.058 31.2968 122.986 31.3716 122.933 31.4699C122.882 31.5663 122.857 31.6814 122.857 31.8152C122.857 31.947 122.882 32.0631 122.933 32.1634C122.986 32.2618 123.058 32.3375 123.149 32.3906C123.239 32.4418 123.342 32.4673 123.456 32.4673C123.566 32.4673 123.666 32.4408 123.757 32.3877C123.849 32.3345 123.922 32.2588 123.975 32.1604C124.028 32.0621 124.055 31.948 124.055 31.8181ZM124.936 31.3696C124.989 31.2575 125.071 31.166 125.181 31.0952C125.293 31.0244 125.425 30.9889 125.577 30.9889C125.724 30.9889 125.856 31.0234 125.972 31.0922C126.088 31.1591 126.179 31.2555 126.244 31.3814C126.31 31.5053 126.344 31.6499 126.344 31.8152C126.344 31.9804 126.31 32.126 126.244 32.2519C126.179 32.3778 126.087 32.4752 125.969 32.5441C125.853 32.6129 125.722 32.6473 125.577 32.6473C125.423 32.6473 125.29 32.6129 125.178 32.5441C125.068 32.4732 124.987 32.3818 124.936 32.2696V32.6237H124.733V30.4401H124.936V31.3696ZM126.134 31.8152C126.134 31.6814 126.108 31.5663 126.055 31.4699C126.004 31.3716 125.933 31.2968 125.842 31.2457C125.752 31.1945 125.649 31.1689 125.535 31.1689C125.425 31.1689 125.324 31.1955 125.231 31.2486C125.141 31.3017 125.069 31.3775 125.016 31.4758C124.963 31.5742 124.936 31.6883 124.936 31.8181C124.936 31.948 124.963 32.0621 125.016 32.1604C125.069 32.2588 125.141 32.3345 125.231 32.3877C125.324 32.4408 125.425 32.4673 125.535 32.4673C125.649 32.4673 125.752 32.4418 125.842 32.3906C125.933 32.3375 126.004 32.2618 126.055 32.1634C126.108 32.0631 126.134 31.947 126.134 31.8152ZM127.429 32.6473C127.278 32.6473 127.141 32.6139 127.019 32.547C126.899 32.4782 126.804 32.3818 126.733 32.2578C126.664 32.1319 126.63 31.9854 126.63 31.8181C126.63 31.6509 126.665 31.5053 126.736 31.3814C126.807 31.2555 126.903 31.1591 127.025 31.0922C127.147 31.0234 127.284 30.9889 127.435 30.9889C127.587 30.9889 127.723 31.0234 127.845 31.0922C127.969 31.1591 128.066 31.2555 128.135 31.3814C128.205 31.5053 128.241 31.6509 128.241 31.8181C128.241 31.9834 128.205 32.129 128.135 32.2549C128.064 32.3808 127.966 32.4782 127.842 32.547C127.718 32.6139 127.581 32.6473 127.429 32.6473ZM127.429 32.4673C127.536 32.4673 127.634 32.4437 127.724 32.3965C127.815 32.3473 127.888 32.2745 127.943 32.1782C128 32.0798 128.028 31.9598 128.028 31.8181C128.028 31.6765 128.001 31.5575 127.946 31.4611C127.891 31.3627 127.818 31.2899 127.727 31.2427C127.637 31.1935 127.538 31.1689 127.432 31.1689C127.326 31.1689 127.228 31.1935 127.137 31.2427C127.047 31.2899 126.974 31.3627 126.919 31.4611C126.866 31.5575 126.839 31.6765 126.839 31.8181C126.839 31.9598 126.866 32.0798 126.919 32.1782C126.974 32.2745 127.046 32.3473 127.134 32.3965C127.225 32.4437 127.323 32.4673 127.429 32.4673ZM128.824 31.2988C128.869 31.1985 128.938 31.1207 129.03 31.0657C129.125 31.0106 129.24 30.983 129.376 30.983V31.1985H129.32C129.17 31.1985 129.05 31.2388 128.96 31.3194C128.869 31.4001 128.824 31.5349 128.824 31.7237V32.6237H128.617V31.0125H128.824V31.2988ZM129.592 31.8152C129.592 31.6499 129.624 31.5053 129.689 31.3814C129.756 31.2555 129.848 31.1591 129.964 31.0922C130.082 31.0234 130.215 30.9889 130.362 30.9889C130.516 30.9889 130.647 31.0244 130.758 31.0952C130.87 31.166 130.95 31.2565 131 31.3667V31.0125H131.206V32.6237H131V32.2667C130.948 32.3768 130.867 32.4683 130.755 32.5411C130.645 32.6119 130.513 32.6473 130.359 32.6473C130.214 32.6473 130.082 32.6129 129.964 32.5441C129.848 32.4752 129.756 32.3778 129.689 32.2519C129.624 32.126 129.592 31.9804 129.592 31.8152ZM131 31.8181C131 31.6883 130.973 31.5742 130.92 31.4758C130.867 31.3775 130.794 31.3017 130.702 31.2486C130.611 31.1955 130.511 31.1689 130.401 31.1689C130.286 31.1689 130.184 31.1945 130.094 31.2457C130.003 31.2968 129.931 31.3716 129.878 31.4699C129.827 31.5663 129.802 31.6814 129.802 31.8152C129.802 31.947 129.827 32.0631 129.878 32.1634C129.931 32.2618 130.003 32.3375 130.094 32.3906C130.184 32.4418 130.286 32.4673 130.401 32.4673C130.511 32.4673 130.611 32.4408 130.702 32.3877C130.794 32.3345 130.867 32.2588 130.92 32.1604C130.973 32.0621 131 31.948 131 31.8181ZM131.946 31.1866V32.187C131.946 32.2854 131.965 32.3532 132.002 32.3906C132.04 32.428 132.106 32.4467 132.2 32.4467H132.389V32.6237H132.168C132.022 32.6237 131.914 32.5903 131.843 32.5234C131.772 32.4546 131.737 32.3424 131.737 32.187V31.1866H131.512V31.0125H131.737V30.6083H131.946V31.0125H132.389V31.1866H131.946ZM133.435 32.6473C133.283 32.6473 133.147 32.6139 133.025 32.547C132.905 32.4782 132.809 32.3818 132.738 32.2578C132.67 32.1319 132.635 31.9854 132.635 31.8181C132.635 31.6509 132.671 31.5053 132.741 31.3814C132.812 31.2555 132.909 31.1591 133.031 31.0922C133.153 31.0234 133.289 30.9889 133.441 30.9889C133.592 30.9889 133.729 31.0234 133.851 31.0922C133.975 31.1591 134.071 31.2555 134.14 31.3814C134.211 31.5053 134.246 31.6509 134.246 31.8181C134.246 31.9834 134.211 32.129 134.14 32.2549C134.069 32.3808 133.972 32.4782 133.848 32.547C133.724 32.6139 133.586 32.6473 133.435 32.6473ZM133.435 32.4673C133.541 32.4673 133.639 32.4437 133.73 32.3965C133.82 32.3473 133.893 32.2745 133.948 32.1782C134.005 32.0798 134.034 31.9598 134.034 31.8181C134.034 31.6765 134.006 31.5575 133.951 31.4611C133.896 31.3627 133.823 31.2899 133.733 31.2427C133.642 31.1935 133.544 31.1689 133.438 31.1689C133.332 31.1689 133.233 31.1935 133.143 31.2427C133.052 31.2899 132.979 31.3627 132.924 31.4611C132.871 31.5575 132.845 31.6765 132.845 31.8181C132.845 31.9598 132.871 32.0798 132.924 32.1782C132.979 32.2745 133.051 32.3473 133.14 32.3965C133.23 32.4437 133.329 32.4673 133.435 32.4673ZM134.829 31.2988C134.875 31.1985 134.944 31.1207 135.036 31.0657C135.13 31.0106 135.245 30.983 135.381 30.983V31.1985H135.325C135.176 31.1985 135.056 31.2388 134.965 31.3194C134.875 31.4001 134.829 31.5349 134.829 31.7237V32.6237H134.623V31.0125H134.829V31.2988ZM137.02 31.0125L136.064 33.3821H135.848L136.161 32.6149L135.5 31.0125H135.727L136.276 32.3877L136.807 31.0125H137.02Z" fill="#F9F9F9"/>
</svg>
