<svg width="40" height="40" viewBox="0 0 40 40" fill="none" xmlns="http://www.w3.org/2000/svg">
<path d="M9.43334 18.1609C8.68789 13.76 9.2454 7.61791 13.7833 5.36088C15.724 4.4831 17.844 4.07402 19.9719 4.16667C26.442 4.44836 32.8532 9.50158 29.2667 16.4276L29.1505 16.7763M15.8333 31.6667C16.6086 32.7843 17.0639 34.0925 17.15 35.45M25.9122 18.5833C25.8038 18.2247 25.8038 17.842 25.9122 17.4833C26.0511 17.1713 26.2695 16.9011 26.5456 16.7C26.7971 16.5127 27.0875 16.3841 27.3953 16.3236C27.7031 16.2632 28.0205 16.2725 28.3243 16.3508C28.628 16.4292 28.9103 16.5745 29.1505 16.7763M29.1505 16.7763C29.3907 16.978 29.5826 17.231 29.7122 17.5167C29.9021 17.959 30 18.4353 30 18.9167C30 19.398 29.9021 19.8743 29.7122 20.3167C29.5122 20.7167 29.2122 21.0333 28.9789 21.4167C28.5956 22.05 28.4622 22.8167 28.1122 23.4833C28.0003 23.7334 27.8141 23.9429 27.5789 24.0833C27.3781 24.1846 27.1487 24.214 26.9289 24.1667M26.9289 24.1667C26.6418 24.1129 26.3803 23.9664 26.1846 23.7496C25.9889 23.5328 25.8698 23.2577 25.8456 22.9667M26.9289 24.1667C26.9289 24.1667 26.7667 24.4505 26.7667 24.8833C26.7604 26.4524 27.3162 27.9719 28.3334 29.1667" stroke="white" stroke-miterlimit="10" stroke-linecap="round"/>
<path d="M23.7333 18.1833C22.811 19.4788 21.4304 20.4596 19.8879 20.8626M24.35 24.5833C23.8508 25.3879 22.6505 26.6667 21.6039 26.6667M19.8879 20.8626C19.6286 20.5302 19.2327 20.2954 18.7167 20.2167C17.1667 19.8 15.55 20.0333 13.9833 19.8C12.4999 19.5791 12.1333 18.3333 10.8333 18.3333C9.99995 18.3333 8.45401 18.8531 8.41667 19.2667C7.92109 23.1402 8.42013 30.1084 12.9833 31.6667C14.4011 32.1508 15.8611 31.6404 17.15 31C18.7366 30.303 21.5495 28.9075 21.6667 26.8833C21.6641 26.8078 21.6415 26.7356 21.6039 26.6667M19.8879 20.8626C20.2382 21.3117 20.3391 21.9388 20.15 22.6C19.9762 23.4998 19.359 25.3472 20.45 25.8667C20.7594 26.0214 21.401 26.2947 21.6039 26.6667" stroke="white" stroke-miterlimit="10" stroke-linecap="round"/>
<path d="M8.95002 21.4C11.5731 22.789 14.6108 23.1798 17.5 22.5" stroke="white" stroke-miterlimit="10" stroke-linecap="round"/>
<path d="M9.16669 24.1667C11.7897 25.5557 14.8275 25.9465 17.7167 25.2667" stroke="white" stroke-miterlimit="10" stroke-linecap="round"/>
<path d="M9.78345 27.555C11.6395 28.5378 13.789 28.8144 15.8334 28.3333" stroke="white" stroke-miterlimit="10" stroke-linecap="round"/>
</svg>
