<svg width="36" height="40" viewBox="0 0 36 40" fill="none" xmlns="http://www.w3.org/2000/svg">
<path d="M10.5596 33.3334C10.5596 31.9527 11.6789 30.8334 13.0596 30.8334H22.9405C24.3212 30.8334 25.4405 31.9527 25.4405 33.3334V33.5417C25.4405 33.8869 25.1607 34.1667 24.8155 34.1667H11.1846C10.8394 34.1667 10.5596 33.8869 10.5596 33.5417V33.3334Z" stroke="white" stroke-width="1.25"/>
<path d="M13.4595 24.9999C13.4595 24.9999 15.4879 26.7027 16.7166 26.9858C17.8115 27.2381 18.9464 27.1632 20.0072 26.7686C21.0681 26.3739 22.0175 25.6735 22.76 24.7377C23.5026 23.8018 24.0121 22.6636 24.2373 21.4373C24.4626 20.211 24.3957 18.9399 24.0434 17.7518C23.8746 17.1826 23.6431 16.6421 23.356 16.142L23.2083 15.8333M10.2678 24.9999C10.2678 24.9999 11.351 26.7603 12.069 27.4749C13.2405 28.6409 14.6655 29.441 16.2006 29.7948C17.7357 30.1485 19.327 30.0435 20.8143 29.4902C22.3017 28.9368 23.6329 27.9548 24.674 26.6426C25.7151 25.3305 26.4295 23.7346 26.7453 22.0152C27.0612 20.2959 26.9674 18.5137 26.4733 16.8478C26.2141 15.9737 25.8495 15.1477 25.3921 14.3916L25.2825 14.2586M23.2083 15.8333C24.1492 15.8333 24.9541 15.1812 25.2825 14.2586M23.2083 15.8333C22.422 15.8333 21.7307 15.3779 21.3331 14.6899M25.2825 14.2586C25.3844 13.9724 25.4404 13.6602 25.4404 13.3333C25.4404 12.6892 25.223 12.102 24.8658 11.6588M25.5592 8.49668L25.4404 8.60014M25.5592 8.49668C25.8462 8.91635 26.3398 8.9245 26.6876 8.61062C27.2066 8.14218 27.2585 7.30681 26.8629 6.72844L26.5055 6.20583C26.1099 5.62746 25.3762 5.46619 24.8372 5.90548C24.4789 6.19758 24.3597 6.74314 24.6417 7.15539M25.5592 8.49668L25.1004 7.82604L24.6417 7.15539M24.6417 7.15539L24.5248 7.26157M24.5248 7.26157L25.4404 8.60014M24.5248 7.26157C23.9861 6.47392 23.7167 6.0801 23.3494 5.95577C23.2262 5.91406 23.0978 5.89501 22.9691 5.89935C22.5856 5.91231 22.234 6.21401 21.5307 6.81742L14.1005 13.1927C13.9007 13.3641 13.8008 13.4498 13.729 13.5382C13.3946 13.9497 13.3235 14.5506 13.5507 15.0454C13.5995 15.1516 13.676 15.2635 13.8291 15.4873M25.4404 8.60014C25.7965 9.12063 25.9745 9.38088 26.0338 9.65309C26.1045 9.9773 26.064 10.3194 25.9204 10.6118C25.7999 10.8573 25.5675 11.0567 25.1028 11.4554L24.8658 11.6588M13.8291 15.4873L15.6844 18.1998M13.8291 15.4873L12.3059 16.7954C11.9487 17.1019 11.7701 17.2552 11.6694 17.438C11.5135 17.721 11.4729 18.065 11.5576 18.3837C11.6124 18.5896 11.7492 18.7896 12.0229 19.1896C12.2966 19.5897 12.4334 19.7897 12.5967 19.9025C12.8493 20.077 13.1565 20.1226 13.441 20.0276C13.6249 19.9663 13.8034 19.813 14.1606 19.5065L15.6844 18.1998M15.6844 18.1998C16.0027 18.665 16.5974 18.7532 17.0127 18.3968L21.3331 14.6899M21.3331 14.6899C21.1073 14.2992 20.9762 13.8334 20.9762 13.3333C20.9762 11.9525 21.9755 10.8333 23.2083 10.8333C23.866 10.8333 24.4573 11.1519 24.8658 11.6588" stroke="white" stroke-width="1.25"/>
<path d="M9.81543 25H15.7678" stroke="white" stroke-width="1.25" stroke-linecap="round"/>
</svg>
