<svg width="32" height="32" viewBox="0 0 32 32" fill="none" xmlns="http://www.w3.org/2000/svg">
<path d="M2.66666 12V10.6667C2.66666 6.66667 5.33333 4 9.33333 4H22.6667C26.6667 4 29.3333 6.66667 29.3333 10.6667V21.3333C29.3333 25.3333 26.6667 28 22.6667 28H21.3333" stroke="white" stroke-width="1.5" stroke-linecap="round" stroke-linejoin="round"/>
<path d="M4.92 15.6133C11.08 16.4 15.6 20.9333 16.4 27.0933" stroke="white" stroke-width="1.5" stroke-linecap="round" stroke-linejoin="round"/>
<path d="M3.49332 20.0933C8.01332 20.6667 11.3333 24 11.92 28.52" stroke="white" stroke-width="1.5" stroke-linecap="round" stroke-linejoin="round"/>
<path d="M2.63999 25.1466C4.89333 25.44 6.56 27.0933 6.85333 29.36" stroke="white" stroke-width="1.5" stroke-linecap="round" stroke-linejoin="round"/>
<path d="M16 14.6667H16.4807C16.5911 14.6667 16.6884 14.5942 16.7201 14.4885L18.4851 8.60525C18.5305 8.45384 18.749 8.46661 18.7765 8.62229L20.5443 18.6397C20.5724 18.7991 20.7982 18.8071 20.8375 18.65L21.9527 14.1894C21.9805 14.0781 22.0805 14 22.1952 14H25.3333" stroke="white" stroke-linecap="round"/>
</svg>
